<?xml version="1.0" standalone="no"?>
<!DOCTYPE svg PUBLIC "-//W3C//DTD SVG 20010904//EN"
 "http://www.w3.org/TR/2001/REC-SVG-20010904/DTD/svg10.dtd">
<svg version="1.0" xmlns="http://www.w3.org/2000/svg"
 width="960.000000pt" height="959.000000pt" viewBox="0 0 960.000000 959.000000"
 preserveAspectRatio="xMidYMid meet">

<g transform="translate(0.000000,959.000000) scale(0.100000,-0.100000)"
fill="#000000" stroke="none">
<path d="M5357 8263 c19 -61 25 -99 25 -173 0 -85 -3 -103 -30 -160 -50 -109
-111 -178 -266 -303 -108 -87 -133 -110 -183 -172 l-32 -40 -33 19 c-18 10
-46 26 -63 36 -86 49 -164 70 -269 74 -123 5 -195 -14 -253 -66 l-21 -20 -25
39 c-81 129 -187 392 -213 528 -20 104 -23 116 -35 109 -6 -3 -6 2 1 12 8 14
7 37 -3 89 -12 57 -15 63 -17 35 -1 -19 -2 -43 -1 -52 1 -10 -4 -27 -12 -38
-14 -21 -15 -21 -23 7 -4 15 -8 36 -9 46 -5 41 -19 28 -38 -34 -4 -12 -15 -16
-39 -13 -21 2 -28 1 -20 -5 11 -7 10 -12 -7 -28 -12 -11 -21 -30 -20 -44 0
-13 -4 -37 -10 -54 l-11 -30 4 30 c3 17 1 37 -5 45 -13 21 -11 -215 2 -319 18
-137 78 -369 109 -423 6 -10 10 -22 10 -28 0 -6 11 -32 24 -59 l23 -49 -21 -6
c-41 -10 -162 -89 -214 -140 -149 -143 -204 -308 -152 -450 19 -50 67 -107
100 -118 9 -3 9 -15 -1 -51 -17 -68 -7 -192 19 -243 26 -50 81 -100 140 -126
32 -14 68 -20 133 -20 86 -1 89 -2 89 -24 0 -17 -7 -24 -32 -29 -53 -11 -169
-89 -234 -157 -77 -80 -128 -160 -162 -252 -25 -65 -27 -84 -27 -218 0 -92 4
-151 11 -158 7 -7 21 -2 49 20 49 39 68 38 97 -7 30 -50 29 -104 -4 -169 -34
-67 -46 -81 -162 -181 -54 -47 -113 -109 -131 -137 -38 -59 -89 -108 -160
-157 -27 -19 -52 -37 -55 -40 -53 -59 -470 -269 -536 -269 l-26 0 5 118 c9
209 41 301 143 413 23 25 60 84 82 130 22 46 50 90 62 97 30 18 123 42 164 42
38 0 97 22 120 45 10 10 16 33 16 60 0 125 -169 235 -362 235 -52 0 -66 13
-90 80 -38 112 -157 248 -260 300 -71 35 -114 38 -166 11 -48 -25 -74 -54
-106 -117 -16 -33 -34 -54 -48 -57 -38 -10 -38 5 -3 66 19 31 32 57 28 57 -12
0 -98 -53 -168 -103 -38 -28 -111 -89 -160 -136 -50 -47 -114 -98 -143 -114
-56 -29 -107 -95 -131 -170 -7 -21 -23 -50 -35 -65 -58 -69 -187 -281 -240
-394 -275 -587 -272 -1167 10 -1668 24 -41 40 -78 36 -81 -4 -4 -52 -21 -107
-39 -338 -110 -1005 -372 -1005 -395 0 -3 16 -13 35 -21 19 -8 35 -20 35 -28
0 -12 -101 -82 -282 -196 -38 -23 -68 -46 -68 -51 0 -12 52 0 65 16 6 6 15 10
21 8 6 -2 22 1 35 6 l24 10 -25 1 c-23 1 -22 2 10 17 19 9 45 15 56 14 12 -1
24 5 27 13 4 9 11 16 17 16 6 0 9 -4 6 -9 -3 -4 6 -6 21 -3 14 3 28 13 30 23
3 11 14 19 27 19 38 0 116 31 116 46 0 8 7 14 15 14 8 0 15 -4 15 -10 0 -5 5
-10 11 -10 6 0 9 8 7 18 -4 14 2 17 32 17 44 1 105 29 114 52 5 12 10 13 17 6
8 -8 26 -4 63 13 28 13 58 24 67 24 23 0 68 24 82 44 11 15 12 11 9 -24 -3
-29 1 -47 14 -61 9 -10 15 -20 13 -22 -13 -9 -117 -47 -128 -47 -7 0 -32 -10
-55 -21 -22 -12 -49 -25 -58 -30 -10 -5 -25 -9 -33 -9 -8 0 -23 -4 -33 -9 -56
-30 -105 -51 -117 -51 -8 0 -15 -4 -15 -10 0 -5 -9 -10 -21 -10 -12 0 -42 -11
-68 -24 -25 -14 -64 -32 -86 -41 -22 -9 -49 -21 -60 -26 -21 -9 -65 -9 -65 1
0 11 150 81 160 75 6 -3 10 -1 10 4 0 6 9 11 20 11 11 0 23 6 26 14 3 7 34 21
70 32 35 10 64 22 64 26 0 4 8 8 18 8 9 0 37 11 62 24 25 12 66 29 93 37 26 7
47 17 47 21 0 4 10 8 23 8 33 0 107 38 107 55 0 21 -19 28 -37 14 -9 -8 -21
-14 -27 -14 -25 -2 -66 -18 -66 -26 0 -5 -9 -9 -20 -9 -11 0 -49 -13 -85 -30
-36 -16 -72 -30 -81 -30 -8 0 -36 -9 -62 -21 -26 -11 -65 -29 -87 -39 -156
-69 -253 -110 -264 -110 -16 0 -44 -28 -38 -37 3 -5 -8 -9 -24 -10 -15 -1 -31
2 -34 7 -13 22 -25 8 -25 -29 0 -35 2 -38 25 -33 33 6 33 -14 0 -62 -30 -44
-31 -71 -5 -113 l19 -32 43 15 c62 22 202 54 208 47 3 -3 -1 -8 -7 -10 -7 -3
-13 -10 -13 -16 0 -22 -95 -97 -148 -117 -59 -22 -102 -48 -102 -61 0 -4 21
-9 47 -11 25 -2 48 -7 50 -13 1 -5 -15 -20 -37 -33 l-40 -23 20 -39 c23 -44
116 -140 137 -140 7 0 30 7 50 15 20 8 38 13 41 10 7 -7 15 -1 -136 -99 -72
-48 -132 -91 -132 -95 0 -23 54 -52 142 -76 40 -11 56 -11 94 1 26 8 54 14 63
14 15 -1 15 -2 0 -13 -23 -18 -41 -56 -35 -74 6 -15 19 -14 60 2 15 7 17 5 11
-14 -11 -36 19 -71 60 -71 20 0 35 -5 35 -12 0 -13 -99 -112 -174 -175 -53
-44 -55 -60 -13 -88 57 -37 85 -32 190 34 54 34 100 61 103 61 2 0 4 -9 4 -20
0 -20 9 -24 41 -21 9 1 19 -5 23 -14 3 -9 10 -13 16 -10 19 12 10 -9 -17 -37
-35 -36 -25 -45 57 -52 36 -3 106 -10 155 -16 83 -10 133 -8 210 6 34 6 208
85 213 97 2 4 10 7 18 7 7 0 33 9 56 19 24 11 61 27 83 36 22 9 62 28 89 41
28 13 53 24 58 24 4 0 49 17 100 39 51 21 113 44 138 51 25 6 63 20 85 30 22
10 74 26 115 35 41 10 81 25 88 33 11 14 16 10 13 -10 0 -4 6 -5 14 -2 8 4 15
1 15 -4 0 -6 23 -39 51 -74 45 -55 314 -455 378 -561 18 -30 27 -36 44 -31 11
3 59 14 106 24 l86 17 6 119 c4 65 7 175 8 244 l2 125 20 -40 c19 -40 84 -181
149 -323 29 -63 37 -73 54 -68 12 4 62 13 111 22 50 9 93 19 97 22 7 8 13 53
28 217 27 294 32 347 46 440 8 55 15 108 15 119 0 18 0 18 14 0 13 -17 14 -17
15 -2 0 13 8 17 33 16 18 -1 42 4 54 10 20 11 21 8 37 -81 19 -107 56 -346 82
-531 10 -70 23 -130 29 -132 6 -3 69 2 140 9 l130 13 -2 44 c-2 38 -32 316
-61 560 -4 36 -4 83 -1 105 4 28 7 32 8 15 2 -14 5 -19 8 -12 2 6 9 12 15 12
6 0 17 8 25 18 13 16 13 15 7 -7 -4 -16 -3 -21 5 -17 6 4 13 -3 15 -16 7 -32
56 -478 61 -557 2 -35 8 -67 12 -71 4 -4 69 -3 143 4 l135 11 0 55 c0 30 -4
113 -9 185 l-8 130 37 -45 c20 -25 56 -67 80 -95 76 -87 126 -147 167 -201
l39 -52 137 3 137 3 8 99 c4 54 6 170 4 258 -2 88 -2 210 2 270 5 101 8 110
25 107 10 -2 23 2 27 10 7 10 9 9 9 -5 0 -10 5 -15 10 -12 6 4 8 10 5 15 -3 5
-1 11 5 15 6 4 10 -6 11 -22 0 -27 1 -27 11 -5 6 12 15 22 20 22 11 0 11 3
-13 -65 -11 -32 -24 -92 -29 -133 -37 -334 196 -601 526 -602 205 0 345 101
407 296 23 73 54 270 44 280 -5 5 -251 30 -393 40 l-101 6 -7 -32 c-3 -18 -6
-81 -6 -141 l0 -109 58 -1 c31 -1 68 -4 81 -8 20 -5 21 -8 9 -18 -25 -22 -86
-43 -120 -43 -83 1 -166 72 -186 161 -27 117 -3 219 69 291 35 34 64 49 75 39
15 -13 74 -22 74 -10 0 15 113 4 142 -15 23 -15 26 -15 48 4 12 11 26 18 30
15 4 -2 22 0 39 5 21 6 41 5 57 -2 19 -9 32 -8 62 6 24 11 68 18 120 19 65 2
82 5 82 17 0 13 1 13 10 0 9 -13 11 -13 19 0 15 23 24 4 10 -22 -7 -13 -13
-59 -13 -103 -1 -65 4 -89 24 -130 33 -67 101 -132 196 -187 97 -56 124 -84
131 -136 5 -34 2 -42 -17 -52 -37 -20 -101 -6 -131 28 -15 16 -28 35 -31 42
-3 10 -25 10 -108 1 -193 -22 -183 -19 -177 -58 17 -103 100 -211 204 -266
120 -63 243 -69 360 -17 118 53 195 151 211 267 22 164 -61 309 -242 423 -53
34 -71 60 -42 60 26 0 46 -12 47 -29 0 -10 2 -11 6 -3 2 6 9 12 14 12 4 0 5
-7 2 -17 -4 -11 -3 -14 5 -9 15 9 55 -31 47 -47 -4 -7 0 -5 7 4 15 19 83 41
94 31 4 -4 4 -1 0 6 -6 10 2 11 34 6 29 -5 45 -2 58 8 14 12 21 12 39 3 13 -6
21 -14 19 -16 -3 -2 62 2 142 9 158 14 420 9 485 -9 52 -14 60 -3 12 16 -20 9
-35 19 -32 22 8 7 105 -16 139 -33 15 -8 38 -14 51 -14 12 0 27 -4 32 -8 6 -5
37 -15 70 -22 33 -8 63 -17 66 -22 3 -4 25 -11 50 -14 24 -3 65 -14 91 -25 26
-10 52 -19 58 -19 6 0 32 -10 58 -22 26 -11 53 -21 59 -21 7 0 11 -3 8 -5 -6
-6 52 -29 110 -43 21 -6 44 -14 50 -19 6 -5 51 -25 101 -44 78 -30 85 -35 53
-35 -21 -1 -80 18 -145 45 -117 49 -223 90 -344 130 -41 14 -84 29 -95 34 -21
9 -74 21 -113 26 -35 4 -21 -19 19 -30 19 -5 36 -12 39 -15 10 -11 72 -41 84
-41 7 0 37 -13 67 -28 30 -16 101 -44 159 -63 58 -19 107 -37 108 -41 2 -5 14
-8 26 -8 12 0 30 -6 41 -13 18 -12 82 -38 160 -65 120 -43 293 -61 360 -38 19
7 32 16 28 19 -3 4 3 7 15 7 12 0 27 9 34 20 7 11 17 20 21 20 5 0 25 16 45
35 20 19 55 41 77 47 22 7 49 17 60 24 11 7 49 18 85 23 36 6 66 15 68 21 2 5
9 10 16 10 18 0 66 24 66 33 0 4 9 18 20 29 43 46 55 174 20 218 -11 14 -20
31 -20 39 0 14 -27 41 -67 68 -13 8 -20 19 -17 24 3 5 -5 9 -16 9 -16 0 -20 5
-16 15 4 11 -2 15 -22 15 -30 0 -132 48 -145 68 -4 6 -17 12 -27 12 -26 0
-110 46 -102 56 4 4 2 4 -4 1 -6 -4 -30 3 -53 14 -22 11 -56 22 -74 26 -17 4
-38 12 -45 20 -7 7 -22 13 -33 13 -10 0 -19 5 -19 10 0 6 -9 10 -19 10 -11 0
-23 5 -26 10 -3 6 -14 10 -24 10 -21 0 -81 28 -81 38 0 7 -71 32 -91 32 -6 0
-25 6 -42 14 -18 8 -49 20 -69 26 -21 6 -38 17 -38 24 0 8 -19 16 -47 19 -79
11 -84 12 -106 39 -17 19 -67 39 -202 83 -343 111 -292 96 -410 120 -38 8 -91
20 -117 27 -43 13 -45 15 -32 33 12 16 14 17 14 2 0 -13 7 -16 32 -13 18 2 37
-2 46 -10 7 -8 26 -14 41 -14 15 0 31 -4 37 -9 5 -5 42 -14 82 -20 40 -5 79
-14 85 -18 7 -5 32 -16 57 -23 25 -7 50 -17 55 -21 6 -4 48 -17 95 -30 47 -12
87 -25 90 -29 9 -12 73 -30 109 -30 22 0 31 -3 23 -8 -10 -7 -8 -13 7 -26 12
-11 21 -14 26 -7 3 6 1 11 -5 11 -6 0 -8 5 -5 10 4 6 12 4 21 -5 9 -8 27 -15
40 -15 14 0 34 -9 46 -20 12 -11 34 -20 49 -20 15 0 31 -4 34 -10 3 -5 15 -10
25 -10 10 0 25 -6 33 -14 8 -8 61 -31 118 -51 57 -19 127 -47 155 -60 28 -14
56 -25 61 -25 6 0 16 -7 23 -15 7 -8 23 -15 35 -15 13 0 52 -15 87 -33 35 -19
75 -37 91 -41 15 -3 27 -11 27 -16 0 -6 11 -10 25 -10 14 0 25 -4 25 -8 0 -4
22 -16 49 -26 28 -10 55 -24 62 -32 6 -8 18 -14 25 -14 8 0 37 -11 66 -25 60
-29 65 -30 48 -10 -7 8 -17 15 -22 15 -11 0 -98 57 -113 74 -5 6 -29 20 -52
30 -23 10 -41 23 -40 29 1 6 -9 12 -23 13 -35 3 -112 32 -130 50 -12 12 -12
14 8 14 12 0 22 5 22 10 0 13 -6 13 -40 -5 -17 -9 -30 -11 -30 -6 0 5 -21 17
-47 27 -27 10 -52 21 -58 25 -5 4 -28 11 -50 15 -22 4 -43 11 -46 16 -3 5 -12
10 -20 12 -35 6 -117 51 -106 58 7 4 -3 8 -23 8 -20 0 -52 8 -72 18 -20 11
-57 25 -82 32 -25 7 -43 16 -41 20 3 5 -5 6 -17 3 -22 -4 -22 -4 -5 10 17 14
15 15 -22 10 -25 -3 -41 -2 -41 5 0 5 -30 17 -67 27 -38 9 -77 21 -88 25 -42
17 -125 40 -144 40 -12 0 -21 6 -21 14 0 9 -17 15 -52 18 -29 3 -54 11 -56 17
-2 6 -15 11 -29 11 -31 0 -96 38 -87 51 3 5 -5 9 -18 8 -13 0 -17 -3 -10 -6
22 -9 13 -26 -10 -18 -43 13 -103 26 -120 26 -9 0 -19 7 -22 15 -3 9 -20 14
-46 14 -30 0 -40 4 -40 16 0 8 -4 13 -10 9 -5 -3 -6 -13 -3 -21 5 -14 3 -14
-15 -3 -20 12 -20 15 -5 32 9 10 23 15 30 13 7 -3 12 0 10 6 -1 6 4 13 11 15
6 3 12 -1 12 -7 0 -29 54 -54 62 -29 3 9 9 9 23 1 30 -16 145 -44 188 -46 20
0 37 -4 37 -7 0 -10 50 -29 75 -29 14 0 25 -4 25 -10 0 -5 10 -10 23 -10 12 0
35 -7 50 -15 16 -8 62 -22 103 -32 41 -9 74 -21 74 -25 0 -4 14 -8 30 -8 20 0
40 -9 57 -26 19 -20 28 -23 34 -13 6 10 17 9 52 -9 24 -12 58 -25 75 -28 18
-4 32 -10 32 -15 0 -5 9 -9 21 -9 19 0 73 -20 168 -62 l43 -19 16 22 c40 58
72 76 167 98 51 12 117 22 146 23 45 0 79 14 79 31 0 3 -17 16 -37 28 -21 13
-41 27 -44 32 -3 5 -9 8 -13 7 -13 -3 -66 12 -66 19 0 4 -27 16 -59 26 -33 10
-62 24 -65 31 -3 8 -18 14 -34 14 -15 0 -37 7 -48 15 -10 8 -28 15 -38 15 -11
0 -27 6 -35 14 -9 8 -50 23 -93 35 -42 11 -90 27 -107 35 -16 9 -41 16 -56 16
-14 0 -25 4 -25 9 0 5 -15 11 -32 14 -18 3 -51 10 -73 17 -22 6 -48 13 -57 14
-10 1 -21 5 -24 9 -4 4 -16 7 -26 7 -10 0 -21 7 -24 15 -4 8 -10 15 -16 15 -5
0 -24 15 -42 32 -17 18 -47 45 -66 59 -23 17 -30 28 -22 33 8 5 11 2 10 -6 -2
-7 6 -13 18 -13 12 -1 28 -6 35 -12 8 -6 26 -14 42 -18 15 -4 27 -14 27 -22 0
-10 -6 -13 -16 -9 -14 5 -15 4 -4 -9 14 -17 30 -11 30 11 0 19 37 18 56 -1 9
-8 24 -15 35 -15 11 0 32 -6 47 -13 15 -8 54 -20 87 -27 33 -7 65 -16 70 -20
6 -4 37 -15 70 -24 60 -18 115 -39 147 -56 10 -6 24 -10 32 -10 8 0 16 -4 18
-8 4 -11 115 -52 139 -52 10 0 19 -3 19 -7 0 -11 50 -33 72 -33 10 0 27 -9 38
-20 13 -13 33 -20 56 -20 21 0 33 -4 29 -10 -3 -5 0 -11 7 -12 21 -2 32 -5 48
-11 53 -20 80 -25 85 -16 8 11 -3 29 -17 29 -6 0 -27 12 -47 28 -51 39 -132
91 -153 98 -10 3 -18 12 -18 20 0 11 16 14 73 14 77 0 147 15 147 31 0 35
-1131 450 -1375 503 -38 9 -104 25 -145 37 -41 11 -93 25 -115 31 l-40 10 0
233 c0 185 -3 235 -14 249 -8 9 -14 34 -14 54 0 20 -2 27 -4 15 -5 -25 -18
-30 -26 -10 -4 9 -8 8 -16 -3 -7 -10 -11 -11 -11 -2 0 6 -9 12 -19 12 -11 0
-23 5 -27 11 -4 8 -9 7 -14 -2 -6 -9 -12 -2 -18 22 -9 30 -10 31 -12 9 l-1
-25 -11 23 c-17 34 -28 27 -28 -18 0 -22 -4 -40 -10 -40 -5 0 -10 17 -10 38 0
20 -4 42 -8 48 -4 7 -8 -78 -9 -189 -1 -207 -17 -357 -37 -357 -35 -1 -319 76
-323 88 -3 7 4 43 17 80 48 146 62 239 67 442 5 186 6 196 29 227 13 17 24 36
24 41 0 5 6 15 13 21 8 6 30 44 50 84 27 54 48 82 77 102 51 35 145 139 165
182 9 18 20 33 24 33 14 0 97 86 129 132 55 81 95 272 62 293 -6 4 -17 23 -26
43 -8 20 -43 66 -78 102 -49 50 -65 74 -71 105 -9 56 -70 160 -128 222 -49 52
-139 104 -202 118 -19 5 -54 33 -95 75 -36 37 -83 77 -105 87 -57 28 -157 47
-214 40 -59 -7 -140 -46 -176 -84 -27 -29 -75 -123 -75 -148 0 -18 -14 -27
-33 -19 -9 3 -40 38 -71 77 -30 40 -65 83 -78 97 -25 26 -214 254 -253 305
-13 17 -45 57 -71 90 -154 193 -394 593 -394 657 0 24 -11 48 -21 48 -5 0 -9
-7 -9 -15 0 -8 -5 -15 -11 -15 -6 0 -8 7 -5 16 3 8 2 12 -4 9 -6 -3 -10 5 -10
19 0 14 -4 26 -10 26 -5 0 -10 -18 -10 -41 0 -22 -4 -38 -9 -35 -5 3 -12 -1
-15 -10 -4 -9 -13 -14 -21 -10 -8 3 -26 -5 -39 -19 -30 -29 -30 -30 -50 -9
-15 14 -16 14 -16 -5 0 -11 5 -23 10 -26 6 -3 10 -12 10 -18 0 -7 -4 -6 -10 3
-5 8 -10 11 -10 5 0 -5 -7 1 -15 15 -9 17 -14 56 -15 117 0 120 -30 270 -75
381 l-35 88 40 84 c34 68 91 153 121 180 3 3 33 42 68 88 199 264 234 519 97
710 -21 28 -39 52 -41 52 -1 0 8 -35 22 -77z m-758 -824 c107 -17 245 -93 287
-156 20 -31 3 -29 -31 3 -62 57 -223 114 -322 114 -61 0 -102 18 -89 38 9 15
70 15 155 1z m-356 -257 c32 -2 37 -22 4 -22 -67 0 -230 -48 -327 -96 -74 -36
-205 -155 -235 -214 -16 -31 -29 -37 -40 -20 -9 14 17 120 30 120 5 0 25 20
43 45 18 24 57 59 85 77 29 18 56 38 60 45 4 7 20 13 35 13 15 0 37 6 48 14
28 20 170 43 244 40 14 0 37 -2 53 -2z m-113 -519 c0 -5 -47 -30 -105 -57
-108 -52 -160 -92 -201 -157 -26 -41 -41 -49 -50 -25 -8 20 20 76 62 125 33
38 142 100 199 114 33 8 95 8 95 0z m651 -39 c99 -22 180 -81 270 -194 52 -65
76 -112 104 -198 25 -77 50 -220 40 -230 -2 -3 -18 10 -34 29 -16 18 -33 31
-36 27 -8 -8 36 -73 105 -153 81 -94 99 -131 106 -216 13 -147 -32 -321 -132
-520 -35 -69 -64 -129 -64 -133 0 -20 20 3 60 69 25 41 48 75 52 75 4 0 21
-26 38 -58 42 -79 79 -123 161 -188 40 -31 71 -65 75 -79 16 -63 -72 -112
-179 -102 -82 8 -144 36 -211 98 -31 28 -60 48 -66 44 -7 -4 -8 -27 -4 -63 9
-81 -9 -135 -62 -192 -70 -75 -190 -118 -239 -86 -38 25 -32 60 20 122 147
172 227 406 269 784 8 69 21 142 30 162 18 42 21 100 6 128 -12 23 -73 44
-104 36 -33 -8 -36 0 -20 46 22 64 18 181 -10 260 -29 81 -103 196 -151 232
-98 75 -197 75 -265 1 -17 -19 -21 -29 -13 -32 10 -4 9 -13 -3 -41 -39 -93
-56 -274 -35 -365 5 -20 6 -39 2 -41 -3 -2 -23 11 -44 29 l-39 34 16 71 c20
86 23 215 6 293 -11 57 -11 59 17 94 57 73 95 130 128 195 19 36 40 68 47 71
25 10 90 7 159 -9z m489 -3 c0 -6 -4 -13 -10 -16 -5 -3 -10 1 -10 9 0 9 5 16
10 16 6 0 10 -4 10 -9z m-547 -284 c76 -32 147 -122 193 -243 29 -78 33 -195
8 -267 -23 -67 -84 -132 -144 -152 -62 -21 -111 -12 -157 28 -79 69 -116 166
-116 301 0 143 40 267 103 320 35 29 65 32 113 13z m-318 -59 c11 -53 10 -63
-6 -60 -9 1 -23 -6 -32 -16 -21 -23 -47 -124 -47 -185 0 -47 -1 -49 -22 -42
-13 4 -58 16 -100 28 l-77 20 5 31 c3 17 7 40 10 51 2 12 28 34 61 53 32 18
87 57 123 87 36 29 68 54 72 54 4 1 10 -9 13 -21z m-309 -194 c-3 -9 -6 -27
-6 -40 0 -18 -5 -24 -21 -24 -15 0 -19 4 -15 16 3 9 9 27 12 40 3 13 13 24 21
24 10 0 13 -6 9 -16z m154 -142 c36 -14 85 -39 110 -55 67 -45 177 -154 220
-218 38 -55 102 -119 120 -119 4 0 15 -3 24 -6 27 -10 18 22 -9 34 -14 6 -25
16 -25 22 0 14 43 13 58 -2 9 -9 21 -3 55 28 85 81 168 134 211 134 9 0 25
-10 36 -22 26 -27 22 -81 -9 -150 -10 -24 -22 -71 -25 -106 -10 -105 -55 -342
-82 -427 -31 -97 -101 -244 -148 -306 -41 -55 -169 -160 -239 -195 -62 -32
-132 -54 -173 -54 -48 0 -131 28 -161 55 l-28 24 41 1 c49 0 82 30 114 103 42
94 36 361 -10 449 -27 52 -26 58 13 58 36 0 48 -13 84 -95 27 -62 29 -118 4
-153 -24 -36 -40 -105 -50 -230 -11 -122 -24 -146 -78 -136 -42 8 -44 -9 -3
-26 135 -56 385 102 523 329 56 92 88 181 117 324 25 121 37 327 23 378 -9 31
-7 41 13 75 46 76 26 73 -58 -9 -35 -35 -84 -73 -108 -85 -34 -16 -40 -23 -26
-28 9 -3 30 -4 46 0 17 3 30 2 30 -3 0 -14 -103 -112 -166 -157 -123 -88 -255
-126 -432 -125 -104 1 -186 15 -422 76 -78 20 -157 15 -206 -14 -31 -18 -35
-19 -41 -5 -9 23 4 149 22 219 31 119 79 201 168 289 160 158 295 195 467 128z
m-1752 -161 c49 -25 133 -108 180 -179 41 -61 92 -159 92 -177 0 -6 16 -60 35
-120 60 -189 57 -284 -16 -397 -37 -57 -33 -61 -59 52 -40 171 -278 580 -337
580 -12 0 -9 -8 11 -32 57 -70 110 -158 171 -283 114 -235 146 -365 107 -441
-24 -48 -62 -85 -62 -62 0 9 -9 44 -20 79 -23 76 -85 157 -233 307 -93 95
-222 200 -232 190 -2 -2 49 -58 113 -123 242 -247 308 -338 320 -442 8 -77
-82 -226 -175 -286 -99 -65 -179 -71 -279 -22 -64 31 -191 146 -200 181 -5 19
21 94 32 94 3 0 28 -18 56 -41 34 -27 57 -54 65 -77 14 -41 65 -92 71 -73 2 7
-5 23 -17 35 -26 28 -28 51 -3 41 35 -16 109 -28 126 -22 19 8 13 27 -9 27
-34 0 -125 44 -182 87 -72 55 -125 122 -178 228 -21 41 -42 72 -46 69 -17 -10
42 -162 84 -219 14 -18 12 -25 -15 -75 -42 -75 -35 -107 34 -179 145 -148 293
-192 431 -128 71 32 180 139 217 211 46 90 59 36 15 -62 -64 -140 -266 -280
-411 -284 -83 -2 -65 -28 20 -28 93 0 230 67 332 162 l64 60 0 -49 c0 -112
-35 -220 -95 -291 -14 -17 -50 -43 -80 -58 -52 -25 -70 -44 -42 -44 22 0 111
46 145 74 35 30 42 24 16 -12 -24 -35 -7 -40 21 -7 13 17 27 48 30 70 16 97
25 114 69 125 131 33 308 114 456 209 90 57 370 286 370 302 0 5 -5 9 -12 9
-6 0 1 14 17 30 l29 30 14 -27 c8 -16 23 -35 34 -44 21 -16 20 -17 -13 -79
-53 -100 -108 -172 -211 -278 -102 -105 -145 -164 -154 -211 -7 -35 15 -51 70
-51 20 0 36 -2 36 -4 0 -1 -19 -33 -43 -69 -24 -36 -51 -83 -61 -105 -15 -34
-32 -48 -110 -90 -225 -124 -383 -198 -486 -226 -203 -55 -224 -62 -228 -75
-4 -11 5 -13 42 -8 28 4 46 3 44 -2 -2 -5 -22 -30 -45 -55 -61 -64 -110 -76
-84 -20 8 19 9 30 2 37 -7 7 -32 -12 -78 -60 -53 -56 -77 -73 -106 -78 -52
-10 -62 3 -43 50 9 21 16 44 16 51 0 19 -25 18 -55 -2 -41 -27 -58 -12 -53 46
3 28 8 53 11 57 4 3 32 -4 63 -16 113 -43 109 -20 -6 40 -151 78 -288 255
-373 484 -30 78 -67 227 -67 265 l0 25 24 -30 c39 -48 40 -23 2 51 -19 38 -39
87 -46 109 -21 71 -24 344 -6 495 20 163 45 249 92 313 69 94 127 107 269 58
46 -17 87 -26 90 -21 6 10 -34 39 -87 64 -45 20 -48 41 -15 106 35 69 71 85
197 85 58 0 117 -4 133 -9 37 -11 36 9 -3 29 -16 9 -30 19 -30 24 0 19 66 104
99 127 43 29 89 31 139 5z m4255 -123 c54 -23 139 -110 163 -167 35 -82 27
-271 -18 -421 -29 -96 -95 -216 -138 -253 -54 -46 -129 -71 -189 -63 -144 19
-228 127 -201 258 14 64 24 73 35 31 13 -53 48 -123 60 -123 14 0 12 13 -26
140 -32 111 -24 247 25 390 35 104 38 133 9 95 -49 -63 -93 -228 -93 -345 0
-28 -11 -77 -26 -116 -32 -82 -37 -182 -12 -229 37 -70 151 -145 218 -145 27
0 45 -8 68 -29 17 -16 53 -38 81 -48 46 -16 51 -21 51 -48 0 -63 -94 -138
-200 -159 -19 -4 -44 -10 -55 -13 -20 -6 -20 -6 0 -13 52 -19 197 30 258 88
15 15 33 46 39 69 10 40 13 43 44 43 28 0 38 -6 60 -39 51 -77 163 -123 252
-103 57 13 55 -2 -7 -63 -79 -78 -222 -144 -352 -162 -29 -5 -53 -12 -53 -18
-2 -18 72 -16 160 5 48 11 89 18 92 16 11 -12 -160 -263 -252 -370 -111 -129
-200 -204 -273 -232 -63 -24 -41 -42 31 -24 51 12 56 11 91 -10 22 -14 35 -29
33 -39 -3 -13 -19 -16 -103 -17 -54 0 -100 -5 -102 -10 -2 -6 10 -23 27 -39
56 -53 32 -82 -57 -69 -63 9 -111 30 -151 65 -18 16 -37 29 -42 29 -22 0 -20
-24 4 -59 58 -84 21 -82 -93 4 -31 23 -96 66 -146 95 -277 163 -365 244 -534
493 -99 145 -131 184 -131 162 0 -16 77 -153 135 -240 l66 -100 -5 -70 c-8
-101 -49 -307 -67 -330 -5 -7 -69 -6 -196 4 -253 18 -1318 21 -1488 3 -66 -7
-160 -15 -208 -19 l-88 -6 6 35 c10 53 -10 54 -30 3 -16 -43 -19 -45 -55 -45
-38 0 -39 1 -54 54 -20 68 -20 142 -1 224 22 95 5 110 -42 37 -15 -25 -33 -45
-40 -45 -20 0 -34 37 -35 89 -1 40 8 69 52 157 43 88 65 121 116 171 85 81 83
107 -3 64 -47 -23 -95 -32 -112 -21 -21 12 16 66 131 187 98 105 198 244 226
314 13 35 17 37 66 41 29 2 72 14 97 26 25 12 47 22 50 22 3 0 3 -29 1 -64 -7
-105 37 -156 134 -156 60 0 100 20 159 80 54 55 65 60 65 31 0 -11 5 -23 10
-26 20 -12 -2 -26 -31 -20 -21 5 -29 3 -29 -8 0 -34 97 -137 128 -137 26 0 21
-25 -17 -83 -68 -106 -85 -152 -84 -237 0 -83 27 -158 78 -218 63 -75 181
-102 273 -62 29 13 57 32 63 42 9 18 17 19 69 13 156 -18 301 113 300 269 -1
93 -32 161 -119 261 l-35 40 54 8 c139 20 250 121 267 242 6 50 13 53 52 26
54 -39 149 -63 230 -58 42 2 85 7 96 11 15 5 28 0 48 -18 32 -30 37 -52 8 -36
-11 5 -27 10 -35 10 -27 0 -18 -18 16 -29 82 -29 332 -193 345 -227 3 -8 -7
-33 -21 -55 -32 -48 -49 -89 -37 -89 5 0 19 16 31 35 12 19 25 35 29 35 4 0 6
-25 3 -55 -3 -34 -1 -55 6 -55 12 0 22 24 22 56 0 13 8 46 19 73 20 53 179
321 190 321 4 0 19 -27 35 -59 27 -58 123 -177 134 -166 3 3 -15 36 -41 73
-74 109 -89 151 -95 272 -3 74 -1 109 7 114 6 4 11 1 11 -6 1 -7 7 -26 16 -43
14 -29 14 -28 10 31 -8 125 -94 211 -326 327 -98 48 -130 81 -130 131 0 31 47
73 109 96 130 50 460 -3 516 -83 22 -31 32 -10 12 24 -22 40 -21 54 7 115 43
92 106 148 186 165 51 11 138 0 193 -23z m293 -197 c74 -35 150 -110 190 -188
27 -53 29 -67 29 -163 0 -98 -2 -109 -32 -171 -60 -123 -143 -211 -245 -262
-62 -31 -203 -31 -270 0 -27 12 -48 26 -48 31 0 5 23 19 50 32 74 35 114 79
164 183 66 134 90 235 91 382 0 66 -3 135 -7 153 -9 40 -1 41 78 3z m-4056
-97 c119 -35 230 -151 190 -198 -13 -16 -131 -46 -182 -46 -18 0 -46 -7 -62
-15 -35 -19 -41 -12 -49 54 -3 25 -17 80 -31 121 -14 41 -26 81 -26 88 0 18
95 16 160 -4z m979 -120 c75 -19 162 -37 195 -41 115 -12 156 -84 164 -287 6
-155 -7 -222 -49 -267 -28 -30 -31 -31 -46 -16 -10 9 -18 39 -21 72 -2 30 -8
57 -12 60 -4 2 -31 -23 -61 -57 -118 -135 -231 -157 -275 -52 -15 37 -11 73
17 152 34 94 18 108 -45 42 -48 -51 -103 -79 -166 -87 -43 -5 -51 -3 -74 20
-37 37 -33 64 16 106 99 84 158 170 158 229 0 31 15 27 46 -13 22 -30 54 -47
54 -30 0 3 -27 46 -60 96 -84 124 -84 123 -25 114 27 -4 110 -22 184 -41z
m787 -147 c-46 -49 -52 -58 -97 -144 -31 -60 -49 -78 -49 -49 0 13 59 136 70
146 3 3 16 20 29 38 22 31 50 50 77 51 7 1 -7 -18 -30 -42z m2624 -64 c56 -63
70 -99 70 -180 0 -88 -30 -154 -105 -232 -93 -98 -216 -142 -310 -111 -41 13
-105 65 -105 84 0 7 19 18 43 25 97 29 192 114 266 238 45 76 71 147 71 195 0
41 22 35 70 -19z m-2914 -191 c-9 -33 -16 -74 -16 -90 0 -17 -5 -34 -11 -38
-18 -11 -5 111 17 165 23 59 29 38 10 -37z m-98 -462 c2 -13 -4 -54 -13 -91
-10 -41 -13 -82 -9 -104 8 -47 -16 -48 -41 -2 -23 43 -17 113 15 180 24 50 43
57 48 17z m216 -116 c29 -63 32 -84 13 -84 -19 0 -48 29 -71 69 -21 37 -17
120 6 149 11 13 14 8 20 -31 3 -26 18 -72 32 -103z m-1409 -560 c15 -20 39
-37 55 -40 26 -6 27 -9 27 -57 0 -29 3 -78 7 -109 4 -32 4 -58 -1 -59 -4 -1
-21 -3 -38 -4 -16 -2 -102 -13 -190 -25 -227 -30 -395 -47 -395 -39 0 3 18 9
40 13 26 4 40 11 40 21 0 8 5 15 11 15 7 0 9 8 5 20 -16 53 -18 65 -7 50 6 -8
11 -11 11 -7 0 5 -10 23 -22 40 -12 17 -17 27 -10 23 8 -5 12 1 12 18 0 13 6
27 13 30 6 4 -4 4 -23 0 -93 -15 -107 -14 -55 2 28 9 147 64 265 123 l215 108
7 -44 c3 -24 18 -60 33 -79z m2556 -51 c16 -10 29 -23 29 -30 0 -7 -31 -30
-70 -53 -38 -22 -90 -59 -116 -81 -35 -30 -51 -38 -68 -33 -30 9 -30 7 -13 76
9 35 20 99 26 143 15 109 19 139 20 144 1 1 37 -31 82 -73 44 -41 93 -83 110
-93z m-666 -247 c21 -2 41 -8 42 -13 5 -13 -130 -28 -148 -17 -7 4 -46 10 -86
14 -61 5 -73 3 -73 -10 -1 -12 -3 -12 -14 3 -12 15 -34 17 -202 17 -126 0
-184 -4 -174 -10 11 -7 0 -10 -37 -10 -29 0 -53 5 -53 10 0 6 -19 9 -42 9 -24
-1 -34 -4 -24 -6 14 -4 15 -7 6 -13 -7 -4 -21 -5 -32 -2 -15 4 -17 7 -6 13 9
6 9 9 1 9 -6 0 -15 -4 -18 -10 -3 -5 -43 -10 -87 -10 -112 0 -251 -20 -278
-40 -21 -16 -21 -22 -20 -224 0 -129 -3 -205 -9 -202 -5 4 -9 76 -9 169 0 89
-1 173 -2 187 -2 24 -3 23 -10 -5 -4 -17 -8 -22 -9 -11 -1 13 -5 16 -13 9 -7
-5 -62 -15 -123 -22 -194 -21 -205 -23 -206 -34 0 -11 -26 49 -28 65 -1 7 21
4 62 -7 18 -5 19 -4 7 4 -12 9 -6 11 25 11 22 0 54 2 70 4 17 2 47 5 68 5 20
1 37 5 37 10 0 11 -140 19 -202 11 -58 -8 -54 5 5 16 23 4 44 8 47 9 3 0 15 6
27 13 12 7 48 10 87 8 55 -2 64 -1 55 11 -9 11 -8 12 4 7 9 -3 24 1 33 11 15
14 18 15 25 2 9 -16 75 -15 185 3 l59 9 -67 -5 c-40 -3 -69 0 -73 6 -9 15 208
12 217 -3 6 -9 10 -9 16 -1 4 6 14 14 22 17 13 6 848 -1 945 -7z m120 -16 c7
-12 -22 -12 -50 0 -17 7 -15 9 12 9 17 1 35 -3 38 -9z m143 0 c28 0 52 -4 52
-8 0 -10 -114 -4 -155 9 -27 8 -26 8 10 4 22 -3 64 -5 93 -5z m242 -27 c9 -8
-150 1 -163 9 -6 5 26 5 73 2 47 -4 87 -9 90 -11z m-815 0 c-16 -2 -37 -7 -45
-10 -24 -9 -50 -12 -130 -13 -41 -1 -88 -4 -105 -7 -28 -5 -29 -6 -8 -14 12
-4 63 -9 113 -10 69 -1 94 2 101 12 7 11 9 9 9 -6 0 -32 -14 -49 -28 -33 -8
10 -37 11 -129 6 -65 -3 -140 -7 -168 -8 -50 -2 -50 -2 -15 -11 19 -4 41 -6
47 -4 7 2 29 -3 50 -11 26 -11 53 -14 88 -10 130 15 135 15 135 0 0 -8 -6 -14
-12 -14 -8 0 -13 -15 -14 -37 0 -20 -6 -39 -12 -41 -7 -2 -12 -16 -12 -30 -1
-29 -28 -97 -29 -72 -1 17 13 77 23 100 5 13 -6 15 -76 13 -163 -4 -178 -6
-184 -14 -3 -5 -12 -3 -19 5 -17 17 -50 95 -43 102 3 2 11 -10 19 -28 13 -33
26 -48 42 -48 5 0 1 7 -7 16 -24 23 -33 44 -41 92 -4 23 -11 42 -16 42 -5 0
-6 -15 -2 -32 7 -40 -12 -27 -22 14 -9 35 -3 37 210 47 180 8 330 11 280 4z
m498 -9 c61 -2 145 -8 186 -14 42 -6 100 -11 129 -11 28 -1 52 -6 52 -12 0
-10 -93 -6 -310 11 -41 3 -101 6 -133 7 -48 0 -57 3 -57 18 0 11 5 15 11 11 6
-3 61 -8 122 -10z m510 -10 c42 -3 77 -10 77 -15 0 -5 -36 -6 -80 -2 -51 4
-80 2 -80 -4 0 -6 45 -13 102 -17 56 -4 107 -10 112 -14 6 -4 27 -7 46 -9 73
-4 140 -15 145 -23 6 -9 -96 -3 -175 12 -30 6 -91 12 -135 14 -108 6 -130 11
-116 28 12 14 3 26 -29 40 -8 3 1 4 20 2 19 -3 70 -8 113 -12z m-2393 -14 c0
-11 -2 -20 -4 -20 -2 0 -6 9 -9 20 -3 11 -1 20 4 20 5 0 9 -9 9 -20z m51 0
c-7 -4 -9 -15 -5 -25 5 -13 3 -16 -7 -13 -8 2 -15 16 -17 30 -3 23 0 26 18 21
13 -4 17 -8 11 -13z m502 13 c-7 -2 -19 -2 -25 0 -7 3 -2 5 12 5 14 0 19 -2
13 -5z m1179 -443 c3 -239 8 -510 10 -601 l4 -166 -95 -7 c-53 -3 -119 -6
-148 -6 l-51 0 -6 83 c-3 45 -8 138 -12 207 -3 69 -7 126 -8 128 -2 1 -46 -93
-98 -210 l-94 -213 -98 0 -98 0 -87 185 c-48 102 -103 216 -122 254 l-34 69
-3 -69 c-2 -38 -6 -156 -10 -264 l-7 -195 -139 -3 c-77 -1 -143 1 -148 6 -8 8
-14 1200 -6 1208 3 2 90 5 193 7 l189 2 68 -170 c38 -93 96 -242 129 -330 33
-88 61 -161 63 -162 2 -2 54 150 115 336 l113 340 41 4 c23 2 107 3 187 3
l145 -1 7 -435z m-1752 420 c0 -5 -6 -10 -14 -10 -8 0 -18 5 -21 10 -3 6 3 10
14 10 12 0 21 -4 21 -10z m2620 0 c23 -7 22 -8 -10 -8 -19 0 -44 3 -55 8 -17
7 -15 9 10 8 17 0 41 -4 55 -8z m-2760 -20 c0 -5 -7 -7 -15 -4 -8 4 -15 8 -15
10 0 2 7 4 15 4 8 0 15 -4 15 -10z m2870 0 c0 -7 -14 -8 -37 -4 -52 9 -54 14
-5 14 23 0 42 -5 42 -10z m-755 -25 c88 -4 171 -9 185 -9 14 -1 31 -5 38 -10
7 -4 30 -6 50 -3 20 3 29 3 20 1 -33 -10 -18 -23 19 -17 26 4 34 3 29 -5 -4
-7 -35 -12 -77 -12 -55 0 -69 3 -69 15 0 9 -9 15 -24 15 -13 0 -32 3 -40 6
-12 5 -15 2 -10 -12 4 -13 3 -15 -3 -6 -5 7 -30 13 -55 14 -26 1 -44 6 -42 10
3 4 1 8 -5 8 -5 0 -13 -5 -16 -10 -4 -7 -12 -7 -18 -2 -7 4 -51 8 -99 8 -77
-1 -88 1 -88 16 0 14 5 16 23 9 12 -4 94 -12 182 -16z m815 15 c0 -12 -8 -12
-35 0 -18 8 -17 9 8 9 15 1 27 -3 27 -9z m-2739 -76 c12 -32 40 -108 61 -169
124 -343 298 -871 298 -902 0 -13 -255 -97 -269 -89 -5 3 -21 41 -37 83 -15
43 -30 81 -33 84 -7 7 -311 -34 -327 -44 -6 -3 -16 -58 -24 -122 l-13 -116
-141 7 c-77 3 -144 10 -149 13 -10 10 59 695 97 961 8 58 20 147 27 198 10 79
15 95 33 103 12 5 93 18 181 30 88 12 183 24 210 28 28 4 53 5 58 1 4 -3 17
-33 28 -66z m2944 50 c39 -7 106 -20 150 -28 75 -13 77 -14 31 -15 -65 -1 -55
-9 35 -26 l74 -14 -73 5 c-83 6 -104 12 -99 28 4 12 -72 29 -215 48 -49 6 -88
15 -88 20 0 10 91 2 185 -18z m-51 -25 c76 -14 90 -18 84 -24 -4 -5 -118 9
-188 23 l-45 9 44 2 c25 0 72 -4 105 -10z m-1094 -8 c0 -5 -6 -12 -12 -14 -10
-4 -9 -8 2 -16 22 -15 34 -13 21 3 -25 30 42 41 78 12 10 -8 17 -5 27 9 13 17
14 13 8 -35 -3 -30 -10 -98 -14 -150 -7 -91 -7 -92 -9 -30 -2 56 -4 61 -12 35
-5 -17 -5 -53 0 -85 8 -51 4 -82 -6 -52 -3 6 -21 12 -40 12 -51 0 -29 16 27
19 9 1 5 7 -10 15 -17 9 -29 10 -38 3 -10 -8 -16 -7 -23 4 -7 11 -9 11 -9 0 0
-8 -6 -11 -16 -7 -11 4 -18 -1 -21 -14 -10 -39 -18 -19 -20 47 0 38 -4 85 -8
106 l-7 38 27 -13 c25 -11 26 -15 20 -60 -6 -39 -4 -48 8 -48 9 0 18 -6 20
-12 3 -7 6 -2 6 11 1 22 2 23 14 8 10 -14 16 -15 37 -4 14 7 26 20 28 30 3 14
-4 17 -41 17 -27 0 -47 -5 -50 -12 -3 -7 -5 5 -4 28 l2 41 45 -5 c25 -2 51 -9
58 -15 9 -7 12 -4 12 11 0 20 -9 24 -88 39 -15 3 -42 5 -59 5 -32 -1 -33 0
-33 44 l0 44 40 0 c22 0 40 -4 40 -9z m560 -6 c0 -13 -4 -14 -20 -5 -12 6 -20
7 -20 1 0 -5 -9 -7 -20 -4 -34 9 -22 23 20 23 29 0 40 -4 40 -15z m-2885 -4
c8 -13 -33 -34 -70 -36 -29 -1 -147 -27 -210 -45 -59 -18 -115 -23 -115 -11 0
6 17 11 41 11 32 0 40 3 36 14 -4 10 -1 13 8 10 16 -6 133 19 215 46 64 21 86
24 95 11z m2990 -1 l30 -8 -35 0 c-19 0 -46 4 -60 8 -24 8 -24 8 5 8 17 0 44
-4 60 -8z m-2075 -107 c0 -66 -4 -103 -9 -94 -7 11 -27 12 -97 6 -49 -4 -108
-10 -132 -15 -36 -6 -44 -5 -49 9 -3 9 -18 48 -34 88 -16 39 -29 73 -29 76 0
2 10 3 23 1 12 -1 25 -3 30 -3 4 -1 7 -11 8 -23 1 -22 1 -22 9 2 4 14 8 19 9
13 1 -17 16 -16 33 0 15 16 101 29 176 27 30 -1 52 3 52 9 0 6 2 11 5 11 3 0
5 -48 5 -107z m2640 97 c8 -5 12 -11 9 -14 -3 -3 -14 1 -25 9 -21 16 -8 20 16
5z m183 3 c-7 -2 -19 -2 -25 0 -7 3 -2 5 12 5 14 0 19 -2 13 -5z m-1063 -16
l125 -12 -1 -73 c-1 -40 -9 -135 -18 -210 -28 -234 -46 -403 -56 -507 -11
-123 -41 -369 -45 -373 -2 -2 -66 2 -144 9 l-141 13 0 45 c0 25 7 131 15 236
8 104 24 312 35 460 11 149 23 305 27 348 l6 77 36 -1 c20 0 92 -6 161 -12z
m427 7 c-3 -3 -12 -4 -19 -1 -8 3 -5 6 6 6 11 1 17 -2 13 -5z m713 -4 c12 -8
12 -10 -5 -10 -11 0 -27 5 -35 10 -12 8 -12 10 5 10 11 0 27 -5 35 -10z m-470
-23 c37 -15 -1 -22 -44 -7 -18 6 -58 11 -88 11 -30 1 -61 5 -69 10 -19 12 168
-1 201 -14z m525 5 c-3 -3 -11 0 -18 7 -9 10 -8 11 6 5 10 -3 15 -9 12 -12z
m-915 -7 c0 -5 -3 -27 -7 -48 -4 -26 -9 -34 -14 -25 -5 7 -13 14 -19 14 -5 1
-14 2 -19 3 -5 0 -12 13 -14 29 -3 23 -4 21 -6 -9 -1 -33 -3 -36 -25 -32 -14
3 -23 10 -21 17 2 6 6 23 9 38 6 25 9 27 61 25 30 -1 55 -6 55 -12z m40 4 c0
-7 12 -10 29 -7 17 2 28 1 26 -2 -3 -4 30 -10 73 -15 111 -10 200 -22 257 -34
28 -6 79 -15 115 -20 138 -21 200 -35 200 -45 0 -6 5 -5 12 2 17 17 33 15 18
-3 -6 -8 -9 -19 -5 -25 3 -5 0 -10 -9 -10 -8 0 -16 -5 -18 -12 -4 -11 -70 -2
-223 31 -22 5 -54 7 -72 4 -25 -4 -34 -1 -43 17 -6 12 -9 28 -6 36 3 8 2 13
-3 9 -5 -3 -11 -1 -13 4 -1 5 -64 17 -138 26 -184 23 -213 28 -218 43 -2 6 1
12 7 12 6 0 11 -5 11 -11z m-3001 -11 c-4 -54 -14 -62 -69 -65 -30 -1 -93 -11
-140 -22 -47 -12 -95 -21 -107 -21 -13 0 -51 -9 -85 -19 -128 -39 -214 -61
-239 -61 -15 0 -32 -6 -38 -14 -19 -23 -59 -17 -64 10 -4 24 8 44 15 25 3 -11
91 3 123 19 11 5 45 14 75 19 30 5 73 15 95 21 22 7 63 17 92 24 28 6 54 14
58 18 3 3 25 4 48 2 32 -3 37 -2 22 5 -16 8 -12 10 23 10 23 1 42 5 42 9 0 5
17 9 37 10 20 1 40 7 45 14 4 7 8 9 8 4 0 -5 6 -3 14 3 11 9 15 9 19 -1 4 -8
6 -7 6 5 1 9 6 17 11 17 6 0 10 -6 9 -12z m3976 2 c17 -7 15 -9 -12 -9 -18 -1
-33 4 -33 9 0 12 17 12 45 0z m-104 -18 c-7 -2 -18 1 -23 6 -8 8 -4 9 13 5 13
-4 18 -8 10 -11z m-4646 -2 c-11 -5 -27 -9 -35 -9 -9 0 -8 4 5 9 11 5 27 9 35
9 9 0 8 -4 -5 -9z m4259 2 c3 -5 -8 -6 -25 -4 -16 2 -29 6 -29 8 0 8 49 4 54
-4z m76 -18 c0 -2 -7 -4 -15 -4 -8 0 -15 4 -15 10 0 5 7 7 15 4 8 -4 15 -8 15
-10z m420 0 c0 -2 -13 -4 -30 -4 -16 0 -30 4 -30 8 0 5 14 7 30 4 17 -2 30 -6
30 -8z m199 -10 c2 -2 -10 -4 -27 -4 -18 0 -32 5 -32 10 0 9 47 4 59 -6z
m-5056 -1 c-7 -2 -19 -2 -25 0 -7 3 -2 5 12 5 14 0 19 -2 13 -5z m2386 -27 c1
19 6 20 103 18 59 -2 104 -7 106 -13 2 -6 -4 -21 -13 -33 l-17 -23 7 23 c7 23
6 23 -17 9 -12 -8 -43 -18 -68 -22 -25 -3 -53 -9 -62 -11 -12 -4 -18 1 -19 13
-1 17 -2 17 -6 1 -2 -10 -8 -18 -12 -18 -11 0 -31 47 -31 73 1 19 3 18 15 -8
11 -25 14 -26 14 -9z m1674 14 c72 -12 132 -22 134 -24 6 -6 193 -397 217
-453 14 -35 37 -86 50 -115 13 -29 26 -62 30 -72 4 -11 10 -15 15 -10 4 5 34
140 65 299 32 160 61 293 65 297 4 4 39 1 78 -7 103 -22 235 -53 239 -58 4 -3
-95 -435 -190 -832 -19 -77 -40 -167 -46 -200 -17 -83 -19 -85 -88 -69 -31 8
-95 23 -142 34 -47 10 -87 25 -89 32 -8 24 -281 562 -290 571 -5 5 -14 -21
-21 -65 -6 -40 -18 -113 -26 -163 -8 -49 -19 -121 -24 -159 -5 -38 -13 -73
-18 -78 -12 -12 -256 20 -276 36 -12 9 -5 82 45 476 32 256 62 491 65 523 l7
57 34 0 c19 0 93 -9 166 -20z m854 14 c-3 -3 -12 -4 -19 -1 -8 3 -5 6 6 6 11
1 17 -2 13 -5z m-4992 -14 c-3 -5 -16 -10 -28 -9 -20 1 -20 2 3 9 14 4 26 8
28 9 2 1 0 -3 -3 -9z m531 1 c-3 -5 -23 -12 -43 -16 -21 -4 -42 -10 -48 -15
-13 -9 -71 -21 -110 -22 -16 0 -34 -6 -40 -13 -5 -7 -20 -15 -32 -18 -18 -4
-23 -1 -23 15 0 10 4 17 9 13 5 -3 27 1 48 9 107 39 251 68 239 47z m4134 -1
c0 -5 -7 -7 -15 -4 -8 4 -15 8 -15 10 0 2 7 4 15 4 8 0 15 -4 15 -10z m40 -4
c0 -3 -4 -8 -10 -11 -5 -3 -10 -1 -10 4 0 6 5 11 10 11 6 0 10 -2 10 -4z m35
-14 c-3 -3 -11 0 -18 7 -9 10 -8 11 6 5 10 -3 15 -9 12 -12z m514 2 c9 -8 -45
-2 -64 6 -14 7 -8 8 20 3 22 -3 42 -7 44 -9z m-5310 -8 c-3 -3 -25 -9 -49 -15
-40 -9 -43 -8 -26 5 17 12 87 21 75 10z m3851 -38 c-5 -24 -6 -46 -4 -50 3 -5
0 -8 -6 -8 -11 0 -6 72 7 93 9 15 10 5 3 -35z m1040 32 c11 -7 5 -8 -20 -4
-43 8 -51 14 -19 14 13 0 31 -5 39 -10z m524 -6 c34 -10 66 -21 71 -27 7 -6 1
-7 -15 -3 -14 4 -50 14 -80 22 -71 19 -79 22 -56 23 11 1 47 -6 80 -15z
m-4455 -28 c1 18 28 41 36 32 2 -2 -5 -50 -16 -108 -17 -94 -18 -84 -5 45 2
22 1 28 -1 12 -2 -15 -9 -25 -14 -21 -6 3 -9 -2 -7 -12 2 -16 -5 -20 -42 -22
-24 -2 -47 -7 -50 -12 -3 -4 -36 -12 -75 -18 -38 -6 -99 -18 -135 -27 -36 -9
-80 -18 -99 -20 -18 -2 -36 -8 -40 -13 -10 -16 -144 -32 -153 -18 -4 6 -1 16
7 22 22 17 18 26 -5 12 -11 -7 -18 -19 -15 -27 3 -8 -4 -23 -15 -33 -15 -14
-21 -16 -24 -6 -27 95 -32 124 -15 95 7 -12 15 -15 22 -9 13 9 54 21 157 47
153 37 187 44 216 45 16 0 34 4 39 8 14 12 87 32 121 33 16 0 45 6 64 12 33
12 35 11 41 -13 6 -22 7 -22 8 -4z m4301 24 c0 -5 -7 -7 -15 -4 -8 4 -15 8
-15 10 0 2 7 4 15 4 8 0 15 -4 15 -10z m-5395 -20 c-41 -19 -74 -26 -61 -12 8
7 74 30 91 30 6 0 -8 -8 -30 -18z m4027 0 c5 22 5 21 7 -7 1 -26 6 -34 26 -39
28 -7 27 -6 19 -28 -5 -14 -8 -14 -21 0 -9 8 -21 13 -28 11 -25 -10 -37 9 -29
49 7 36 8 37 14 14 l7 -25 5 25z m61 -7 c2 -13 1 -26 -3 -28 -16 -10 -40 8
-40 29 0 31 37 30 43 -1z m860 20 c-7 -2 -19 -2 -25 0 -7 3 -2 5 12 5 14 0 19
-2 13 -5z m507 -3 c0 -5 -6 -10 -14 -10 -8 0 -18 5 -21 10 -3 6 3 10 14 10 12
0 21 -4 21 -10z m-5047 -15 c4 -8 2 -17 -3 -20 -6 -4 -10 -4 -10 -1 0 2 -3 11
-6 20 -3 9 -2 16 4 16 5 0 12 -7 15 -15z m5087 11 c0 -3 -4 -8 -10 -11 -5 -3
-10 -1 -10 4 0 6 5 11 10 11 6 0 10 -2 10 -4z m190 -16 c20 -6 21 -8 5 -8 -11
0 -29 3 -40 8 -25 11 1 11 35 0z m-5775 -10 c-3 -5 -14 -10 -23 -9 -14 0 -13
2 3 9 27 11 27 11 20 0z m2942 -42 c-9 -18 -17 -28 -17 -22 0 7 -29 12 -77 13
-75 2 -103 11 -103 35 0 17 171 21 181 4 6 -9 9 -8 9 7 0 14 3 16 11 8 9 -9 8
-20 -4 -45z m2387 43 c4 -5 -3 -7 -14 -4 -23 6 -26 13 -6 13 8 0 17 -4 20 -9z
m506 -7 c0 -2 -7 -4 -15 -4 -8 0 -15 4 -15 10 0 5 7 7 15 4 8 -4 15 -8 15 -10z
m-1178 -24 c2 7 19 6 48 -3 63 -20 136 -37 163 -38 21 -1 21 -1 -3 -8 -30 -9
-100 -2 -117 12 -16 12 -93 16 -93 5 0 -19 -19 3 -29 34 l-11 33 19 -23 c11
-12 21 -17 23 -12z m731 23 c-7 -2 -19 -2 -25 0 -7 3 -2 5 12 5 14 0 19 -2 13
-5z m-4923 -40 c5 -21 37 -150 70 -288 129 -536 143 -590 150 -599 5 -4 58 4
118 18 60 15 127 27 147 29 l38 2 28 -130 c15 -71 25 -133 23 -137 -2 -3 -57
-19 -122 -33 -64 -15 -186 -44 -270 -66 -84 -21 -161 -39 -171 -39 -14 0 -26
33 -66 178 -26 97 -77 278 -111 402 -35 124 -78 277 -95 340 -17 63 -42 150
-54 192 -17 57 -20 79 -12 86 7 5 68 24 137 41 69 18 127 34 129 37 2 2 15 4
27 4 18 0 25 -8 34 -37z m4845 27 c7 -12 -2 -12 -30 0 -19 8 -19 9 2 9 12 1
25 -3 28 -9z m-5390 -9 c-14 -14 -155 -51 -155 -41 0 4 17 11 38 15 20 3 48
13 62 20 29 16 69 20 55 6z m6030 -12 c6 -6 -3 -7 -24 -3 -23 5 -36 3 -41 -7
-5 -7 -12 -10 -15 -7 -4 4 -1 14 6 22 14 16 55 13 74 -5z m-3796 -31 c-1 -24
-4 -33 -6 -20 -4 18 -9 21 -30 16 -28 -7 -53 -10 -120 -12 -33 -2 -43 -6 -48
-23 -6 -17 -9 -19 -16 -8 -8 12 -10 12 -18 1 -6 -10 -11 -5 -20 19 -13 38 -13
40 -3 37 4 -1 51 4 104 11 54 7 101 10 105 8 5 -2 17 -1 28 4 11 4 21 8 23 8
1 1 1 -18 1 -41z m3228 11 c-3 -10 1 -20 8 -23 9 -3 11 2 8 15 -5 17 -2 19 18
14 91 -21 180 -39 214 -43 22 -2 45 -8 50 -12 6 -4 48 -15 95 -25 47 -9 86
-18 88 -20 2 -2 -16 -6 -40 -10 -24 -3 -68 -13 -98 -21 -49 -14 -62 -13 -120
1 -36 9 -76 19 -90 22 -14 3 -27 10 -30 14 -3 5 -25 10 -48 11 -29 2 -42 8
-42 18 0 13 -1 13 -11 0 -8 -12 -12 -12 -16 -2 -4 10 -8 10 -19 1 -11 -9 -14
-7 -14 9 0 11 3 33 6 50 5 23 10 29 26 24 13 -3 18 -11 15 -23z m450 25 c-3
-3 -12 -4 -19 -1 -8 3 -5 6 6 6 11 1 17 -2 13 -5z m216 -40 c-6 -16 -23 -19
-23 -4 0 6 -6 10 -13 10 -7 0 -22 6 -33 14 -17 13 -13 13 28 4 32 -8 45 -15
41 -24z m-1922 2 c15 9 39 -16 39 -42 0 -12 -7 -29 -15 -38 -8 -8 -15 -22 -15
-30 0 -9 -8 -16 -17 -17 -10 -1 -29 -2 -43 -2 -25 -2 -42 -33 -18 -34 47 -3
68 -9 68 -18 0 -5 5 -3 10 5 8 12 10 9 10 -12 0 -32 -1 -32 -54 -17 -31 8 -41
8 -48 -3 -6 -8 -7 23 -2 82 3 52 11 98 16 101 6 4 8 11 4 17 -4 7 3 9 19 6 16
-3 25 0 26 8 0 10 2 10 6 0 2 -6 9 -9 14 -6z m556 -50 c-2 -6 -9 -1 -16 12 -6
12 -9 28 -5 34 8 13 27 -28 21 -46z m262 32 c0 -13 -3 -17 -6 -10 -2 6 -14 12
-26 13 -20 1 -20 2 3 9 14 4 26 8 28 9 1 1 2 -9 1 -21z m1166 12 c13 -5 14 -9
5 -9 -8 0 -24 4 -35 9 -13 5 -14 9 -5 9 8 0 24 -4 35 -9z m-6005 -39 c0 -6
-15 -11 -34 -11 -19 0 -37 -6 -39 -12 -4 -8 -6 -7 -6 3 -1 10 9 19 24 23 14 4
25 13 25 22 0 14 2 14 15 0 8 -8 15 -19 15 -25z m4610 5 c-14 -14 -24 0 -16
21 6 15 8 15 16 3 6 -9 5 -19 0 -24z m-3540 -6 c0 -23 -4 -28 -16 -23 -8 3
-41 -1 -72 -10 -52 -14 -145 -34 -262 -56 -25 -5 -83 -19 -129 -31 -68 -17
-86 -19 -92 -8 -15 22 -11 25 43 32 28 4 67 14 86 22 19 8 49 14 67 14 18 0
74 13 126 30 52 16 125 34 163 39 37 5 71 12 74 15 10 11 12 6 12 -24z m-1557
-3 c-40 -13 -78 -28 -85 -35 -14 -14 -48 -16 -48 -3 0 5 13 12 30 16 16 4 32
11 35 16 4 5 19 9 35 9 16 0 32 5 35 10 3 6 21 10 38 9 25 0 16 -5 -40 -22z
m5248 7 c41 -4 66 -11 62 -17 -5 -9 -119 -3 -170 10 -36 8 -27 26 9 19 17 -3
62 -9 99 -12z m-2063 -19 c-3 -3 -9 2 -12 12 -6 14 -5 15 5 6 7 -7 10 -15 7
-18z m82 15 c0 -5 -4 -10 -10 -10 -5 0 -10 5 -10 10 0 6 5 10 10 10 6 0 10 -4
10 -10z m8 -76 c-16 -35 -24 -44 -26 -30 -2 10 2 22 9 27 11 6 11 11 1 21 -16
16 -15 28 2 28 7 0 17 10 21 23 8 22 8 22 12 1 2 -12 -6 -44 -19 -70z m3258
68 c-10 -2 -22 0 -28 6 -6 6 0 7 19 4 21 -5 23 -7 9 -10z m-6216 4 c0 -3 -4
-8 -10 -11 -5 -3 -10 -1 -10 4 0 6 5 11 10 11 6 0 10 -2 10 -4z m80 -17 c0 -5
-4 -9 -10 -9 -5 0 -10 7 -10 16 0 8 5 12 10 9 6 -3 10 -10 10 -16z m2826 -62
c-8 -23 -15 -34 -16 -25 0 9 5 29 11 45 8 23 8 26 -2 16 -17 -17 -26 -16 -33
3 -3 8 -2 12 4 9 5 -3 15 3 22 14 l13 21 7 -21 c5 -13 2 -38 -6 -62z m3421 77
c-3 -3 -12 -4 -19 -1 -8 3 -5 6 6 6 11 1 17 -2 13 -5z m-4077 -140 c0 -87 -3
-123 -11 -118 -7 4 -9 44 -5 123 6 136 5 121 11 121 3 0 5 -57 5 -126z m1328
72 c-2 -40 0 -52 10 -49 6 3 12 -2 12 -11 0 -9 -2 -16 -4 -16 -2 0 -11 -3 -19
-6 -12 -4 -15 7 -14 65 1 39 5 71 10 71 5 0 7 -24 5 -54z m1244 27 c9 -22 12
-24 15 -10 5 19 67 25 79 6 3 -6 22 -9 41 -7 31 4 34 2 28 -16 -4 -12 -8 -34
-11 -51 -11 -81 -25 -140 -34 -149 -7 -7 -10 -6 -10 3 0 7 -5 9 -12 5 -8 -5
-9 -2 -5 10 4 10 7 20 7 22 0 2 7 4 15 4 19 0 19 17 2 35 -11 11 -15 5 -25
-32 -11 -38 -15 -43 -27 -33 -19 15 -20 -1 -4 -32 9 -17 13 -18 21 -7 7 10 8
7 4 -11 -3 -14 -1 -32 4 -40 8 -12 10 -9 10 12 0 15 5 30 10 33 7 4 8 -8 4
-37 -8 -49 -23 -85 -24 -55 0 10 -13 48 -30 84 -38 81 -46 113 -30 113 7 0 10
-7 6 -15 -6 -17 9 -21 19 -5 9 14 -22 43 -39 37 -8 -3 -18 5 -25 20 -14 31 -7
41 19 25 11 -7 29 -12 40 -12 21 0 23 -5 22 -60 -2 -48 13 -19 22 43 l7 47
-45 0 c-30 0 -46 4 -46 13 0 9 -2 9 -8 -1 -7 -10 -15 -6 -34 13 -31 31 -42 65
-21 65 8 0 11 -4 8 -10 -4 -6 1 -7 11 -3 13 5 15 2 9 -15 -4 -14 -2 -22 6 -22
7 0 9 10 6 30 -8 38 0 39 15 3z m-4638 1 c10 -27 7 -31 -31 -37 -24 -4 -40 -2
-45 6 -13 20 -9 37 6 31 8 -3 23 -1 33 5 25 14 30 14 37 -5z m2005 0 c2 -2
-15 -4 -38 -4 -25 0 -40 4 -36 10 5 8 63 3 74 -6z m1504 9 c-13 -2 -33 -2 -45
0 -13 2 -3 4 22 4 25 0 35 -2 23 -4z m1725 -2 c20 -11 152 -42 197 -46 42 -5
42 -5 22 -16 -9 -5 -23 -7 -30 -2 -6 4 -34 10 -62 14 -27 3 -72 12 -98 20 -42
12 -49 11 -57 -1 -7 -11 -10 -8 -10 13 0 28 10 33 38 18z m-5338 -137 c23 -75
39 -139 34 -143 -5 -5 -79 -31 -165 -59 -86 -28 -168 -56 -182 -61 l-26 -10
32 -95 c22 -66 36 -96 47 -96 8 0 55 14 105 30 49 17 104 33 121 36 35 6 24
29 88 -194 13 -45 21 -84 17 -86 -3 -2 -57 -18 -120 -37 -62 -18 -115 -38
-118 -45 -2 -6 23 -94 57 -194 33 -100 59 -184 57 -186 -7 -7 -232 -87 -258
-91 -30 -6 -21 -25 -144 307 -42 113 -128 342 -191 509 -64 167 -111 308 -107
312 17 17 658 238 694 239 11 0 27 -36 59 -136z m6409 109 c2 -2 -5 -3 -17 -3
-14 0 -22 6 -22 16 0 14 3 15 18 3 9 -7 19 -15 21 -16z m-6964 8 c-12 -12 -65
-25 -65 -17 0 8 39 24 60 25 9 1 10 -2 5 -8z m1735 -16 c0 -8 -4 -17 -10 -20
-6 -4 -10 5 -10 20 0 15 4 24 10 20 6 -3 10 -12 10 -20z m970 6 c0 -15 -8 -19
-47 -19 -26 -1 -71 -6 -100 -12 -46 -10 -53 -15 -53 -35 0 -12 6 -25 13 -28
16 -6 136 1 149 9 7 4 8 -2 3 -17 -4 -13 -8 -24 -9 -25 0 -1 -27 2 -59 5 -63
8 -83 1 -74 -24 4 -9 11 -14 16 -11 9 6 25 -23 17 -32 -15 -14 -35 15 -55 80
-12 40 -26 83 -31 95 -7 17 -6 21 5 16 8 -3 16 -13 16 -22 1 -14 2 -14 6 2 5
19 9 19 100 17 34 -1 64 3 68 9 10 18 35 12 35 -8z m1444 -2 l56 2 0 -32 c0
-26 -3 -30 -12 -21 -7 7 -29 12 -49 12 -21 0 -40 6 -42 13 -4 9 -8 8 -16 -3
-9 -12 -11 -12 -17 3 -3 9 -3 25 0 34 6 14 9 15 16 3 6 -9 25 -13 64 -11z
m543 -11 c-3 -7 -5 -2 -5 12 0 14 2 19 5 13 2 -7 2 -19 0 -25z m1940 26 c-3
-3 -12 -4 -19 -1 -8 3 -5 6 6 6 11 1 17 -2 13 -5z m-6053 -29 c8 -23 -12 -28
-23 -6 -6 11 -11 22 -11 25 0 11 29 -6 34 -19z m1126 10 c0 -8 -6 -15 -14 -15
-8 0 -16 -4 -18 -8 -4 -9 -198 -55 -205 -48 -3 2 -20 -2 -38 -10 -19 -8 -46
-14 -60 -14 -14 0 -36 -6 -48 -14 -12 -8 -57 -17 -99 -21 -64 -6 -78 -5 -78 7
0 17 76 45 140 52 55 7 346 64 380 76 37 12 40 11 40 -5z m4905 -12 c132 -30
272 -113 348 -207 28 -33 34 -46 24 -54 -6 -5 -66 -37 -132 -69 l-120 -60 -52
43 c-87 72 -196 91 -297 54 -112 -43 -193 -152 -218 -297 -22 -132 28 -252
127 -303 66 -33 182 -36 235 -4 55 32 45 46 -55 75 -49 14 -91 31 -93 37 -2 6
4 37 12 69 51 187 51 188 71 191 11 1 108 -25 215 -58 107 -34 219 -68 248
-77 36 -11 52 -21 52 -33 0 -29 -88 -231 -124 -284 -106 -160 -268 -246 -436
-232 -288 22 -509 219 -558 496 -14 83 -14 97 2 197 36 222 150 384 330 474
137 67 257 79 421 42z m101 12 c16 -8 22 -15 13 -15 -8 0 -24 7 -35 15 -25 19
-14 19 22 0z m-6796 -15 c0 -5 -9 -10 -21 -10 -11 0 -17 5 -14 10 3 6 13 10
21 10 8 0 14 -4 14 -10z m317 4 c-3 -3 -12 -4 -19 -1 -8 3 -5 6 6 6 11 1 17
-2 13 -5z m-377 -19 c-7 -8 -17 -15 -22 -15 -5 0 -34 -11 -64 -25 -30 -14 -59
-25 -64 -25 -6 0 -18 -4 -28 -9 -34 -17 -206 -81 -219 -81 -2 0 -3 3 -3 8 0 4
15 12 33 18 99 35 313 117 322 124 6 4 19 10 30 13 11 2 22 5 24 6 2 0 -2 -6
-9 -14z m5997 -7 c-3 -8 -6 -5 -6 6 -1 11 2 17 5 13 3 -3 4 -12 1 -19z m87 6
c16 -3 38 -9 50 -14 17 -7 13 -9 -21 -9 -23 -1 -45 4 -48 9 -3 6 -17 10 -31
10 -13 0 -24 5 -24 11 0 7 9 9 23 5 12 -4 35 -9 51 -12z m226 6 c0 -5 -7 -10
-15 -10 -8 0 -15 5 -15 10 0 6 7 10 15 10 8 0 15 -4 15 -10z m621 -7 c12 -16
12 -17 -1 -7 -8 6 -22 14 -30 17 -13 5 -12 6 1 6 9 1 23 -7 30 -16z m309 -4
c-29 -8 -62 -10 -42 -2 6 2 10 8 8 12 -3 4 9 5 27 2 31 -4 31 -5 7 -12z
m-6405 -68 c-5 -13 -7 -13 -15 -1 -8 13 -10 12 -10 -2 0 -10 -4 -18 -10 -18
-5 0 -10 5 -10 10 0 6 -4 10 -10 10 -5 0 -9 -5 -7 -12 4 -23 -33 -20 -42 4
-16 44 -23 74 -13 59 7 -9 12 -10 16 -2 4 6 20 11 36 11 16 0 32 5 36 12 10
17 37 -49 29 -71z m2716 49 c5 -3 5 -17 2 -30 -6 -22 -7 -23 -14 -4 -4 10 -8
30 -8 44 1 15 3 19 6 10 3 -8 10 -17 14 -20z m-2301 -32 c0 -20 4 -26 15 -22
9 4 15 0 15 -9 0 -9 3 -24 6 -34 4 -13 3 -15 -4 -4 -8 11 -11 11 -18 0 -8 -14
-44 99 -36 115 7 13 22 -17 22 -46z m618 27 c-3 -3 -9 2 -12 12 -6 14 -5 15 5
6 7 -7 10 -15 7 -18z m-588 -1 c0 -14 -3 -14 -15 -4 -8 7 -15 14 -15 16 0 2 7
4 15 4 8 0 15 -7 15 -16z m1560 -51 l0 -68 -59 0 c-52 0 -60 3 -63 20 -4 18 1
20 46 20 59 0 66 6 66 58 0 20 2 37 5 37 3 0 5 -30 5 -67z m3414 53 c-7 -19
-27 -26 -53 -19 -32 8 -25 23 8 17 16 -4 32 -1 35 5 10 16 16 14 10 -3z m1096
-6 c12 -8 12 -10 -5 -9 -11 0 -29 4 -40 9 -18 8 -18 9 5 9 14 0 32 -4 40 -9z
m-3014 -62 c-2 -35 -5 -63 -5 -63 -1 0 -24 0 -51 0 -28 0 -50 4 -50 8 0 5 -4
5 -10 2 -5 -3 -11 4 -11 17 -1 19 -3 18 -9 -7 -8 -30 -8 -30 -9 8 -1 48 1 52
22 50 12 -2 17 4 17 22 0 24 3 25 55 25 l56 0 -5 -62z m1663 34 l1 26 73 -20
c39 -11 80 -20 90 -19 26 0 21 -18 -16 -54 -18 -18 -48 -55 -66 -84 -18 -28
-39 -51 -46 -51 -7 0 -15 -3 -18 -7 -2 -5 -2 -2 -1 5 2 6 -1 12 -6 12 -14 0
-12 57 1 66 8 5 10 -2 6 -22 l-5 -29 19 24 c22 27 24 43 7 40 -29 -3 -38 2
-38 24 0 13 3 17 8 11 9 -15 76 -24 93 -13 23 15 -13 35 -68 38 l-49 2 4 -71
c3 -50 1 -70 -8 -70 -8 0 -11 14 -9 44 2 24 1 42 -3 39 -5 -2 -8 -22 -8 -44 0
-29 -4 -39 -16 -39 -12 0 -15 6 -9 23 4 12 13 54 21 92 8 39 17 79 21 90 6 17
8 16 14 -10 6 -29 7 -29 8 -3z m1411 3 c24 -13 24 -14 4 -15 -12 0 -27 7 -34
15 -16 19 -3 19 30 0z m-7253 -1 c-3 -3 -12 -4 -19 -1 -8 3 -5 6 6 6 11 1 17
-2 13 -5z m1699 -50 c-3 -9 -20 -14 -46 -14 -50 0 -52 15 -4 25 25 4 38 13 42
28 7 22 7 22 10 -1 2 -13 1 -30 -2 -38z m2877 -31 c9 -8 77 7 77 17 0 13 -13
19 -49 22 -43 3 -39 15 8 20 33 3 68 -12 55 -24 -2 -3 -6 -20 -8 -39 -2 -19
-4 -36 -5 -39 -1 -3 -21 -5 -46 -6 -38 -1 -45 2 -40 15 4 12 3 13 -5 5 -27
-27 20 -59 68 -47 20 5 23 2 20 -18 -3 -21 -8 -23 -51 -24 -27 0 -52 2 -56 5
-4 3 -3 46 2 95 9 74 12 84 18 57 4 -18 9 -36 12 -39z m-4666 51 c-3 -3 -12
-4 -19 -1 -8 3 -5 6 6 6 11 1 17 -2 13 -5z m792 -52 c1 -7 -3 -10 -9 -7 -5 3
-10 1 -10 -6 0 -7 -3 -10 -6 -6 -3 3 -3 21 1 39 7 29 9 30 16 13 4 -11 8 -26
8 -33z m-893 13 c-11 -8 -25 -15 -30 -15 -6 1 0 7 14 15 32 19 40 18 16 0z
m840 -33 c-20 -20 -22 -1 -4 31 11 20 12 21 16 3 2 -10 -3 -26 -12 -34z m938
39 c4 -5 -7 -12 -24 -16 -16 -4 -30 -11 -30 -16 0 -14 -43 -7 -47 8 -7 21 89
44 101 24z m5841 -1 c3 -5 -1 -10 -9 -10 -9 0 -16 5 -16 10 0 6 4 10 9 10 6 0
13 -4 16 -10z m-6808 -50 c3 -38 11 -50 21 -34 4 6 21 16 38 21 31 11 32 10
38 -19 7 -36 -2 -53 -11 -20 -3 12 -10 22 -15 22 -5 0 -6 -9 -3 -20 5 -16 2
-20 -17 -21 -13 -1 -27 -1 -31 0 -4 1 -18 -4 -30 -11 -12 -7 -26 -13 -32 -14
-33 -4 -75 -18 -75 -24 0 -4 -6 -8 -12 -7 -31 1 -49 -4 -44 -12 3 -4 -6 -6
-21 -3 -18 3 -24 1 -19 -6 5 -8 -1 -11 -16 -11 -13 1 -36 -6 -53 -15 -16 -9
-43 -16 -59 -16 -21 0 -27 -4 -22 -16 3 -8 2 -12 -4 -9 -6 3 -10 12 -10 19 0
10 25 22 90 41 3 1 18 7 35 14 16 7 61 21 100 33 164 47 148 39 142 78 -3 19
-8 43 -13 54 -5 14 -3 17 7 14 7 -2 15 -20 16 -38z m820 5 c-9 -8 -31 -14 -51
-13 -20 1 -42 -4 -48 -10 -17 -17 -78 -15 -78 2 0 10 19 16 68 21 37 4 78 13
92 20 28 15 39 3 17 -20z m6053 25 c0 -5 -4 -10 -10 -10 -5 0 -10 5 -10 10 0
6 5 10 10 10 6 0 10 -4 10 -10z m-5800 -10 c0 -13 -20 -13 -40 0 -12 8 -9 10
13 10 15 0 27 -4 27 -10z m5850 -10 c0 -5 -2 -10 -4 -10 -3 0 -8 5 -11 10 -3
6 -1 10 4 10 6 0 11 -4 11 -10z m-8151 -18 c-7 -3 -17 -10 -21 -16 -5 -7 -8
-5 -8 5 0 22 9 29 28 21 13 -5 14 -6 1 -10z m2282 -32 c5 0 9 10 9 22 0 12 2
19 5 16 3 -2 2 -26 -1 -51 -7 -47 -24 -56 -24 -11 0 27 -18 31 -67 14 -16 -6
-77 -22 -134 -36 -57 -13 -122 -29 -144 -35 -62 -16 -130 -27 -134 -23 -13 12
29 31 112 51 87 20 169 41 264 65 24 6 54 11 68 11 14 0 26 5 26 11 1 6 4 1 6
-11 2 -13 9 -23 14 -23z m2383 19 c3 1 31 1 61 1 52 0 55 -2 55 -24 0 -39 -10
-58 -25 -46 -9 7 -21 7 -40 0 -21 -8 -30 -8 -35 0 -10 15 -21 15 -31 -2 -5 -8
-9 8 -9 42 0 34 4 50 9 42 4 -8 11 -13 15 -13z m-2937 -31 c-3 -7 -5 -2 -5 12
0 14 2 19 5 13 2 -7 2 -19 0 -25z m119 22 c8 0 14 -5 14 -12 0 -6 -3 -8 -6 -5
-4 3 -14 3 -23 -2 -9 -5 -33 -11 -53 -15 -33 -6 -38 -5 -38 13 0 15 8 21 33
24 17 2 38 2 45 0 8 -1 20 -3 28 -3z m5809 -48 c-5 -5 -45 36 -45 46 0 3 11
-5 25 -18 14 -13 23 -26 20 -28z m631 33 c18 -13 18 -14 -4 -8 -12 3 -25 9
-28 14 -8 14 10 11 32 -6z m-6026 -31 c0 -11 -6 -15 -20 -11 -11 3 -20 2 -20
-2 0 -10 -85 -31 -126 -31 -24 0 -34 4 -32 13 4 10 41 17 166 29 6 1 12 5 12
10 0 4 5 8 10 8 6 0 10 -7 10 -16z m1060 -103 l0 -99 -35 2 c-19 1 -35 -3 -35
-8 0 -4 -7 -3 -15 4 -9 7 -14 19 -11 26 3 7 1 14 -3 16 -5 2 -11 12 -15 23 -5
16 -1 21 14 22 19 2 24 -9 23 -44 -1 -7 3 -10 8 -7 5 3 9 0 9 -7 0 -11 2 -11
13 0 10 10 9 14 -5 22 -30 17 -22 37 12 33 25 -3 30 0 30 17 0 17 -5 20 -34
18 -19 -2 -38 0 -42 4 -4 4 -17 7 -30 7 -14 0 -24 8 -28 23 -8 31 -7 44 2 29
9 -14 132 -5 132 9 0 5 2 9 5 9 3 0 5 -45 5 -99z m4397 93 c-3 -3 -12 -4 -19
-1 -8 3 -5 6 6 6 11 1 17 -2 13 -5z m-6351 -102 c-3 -3 -6 3 -6 13 0 17 -1 17
-12 3 -7 -8 -47 -28 -88 -43 -41 -16 -78 -33 -82 -39 -5 -7 -8 -6 -8 4 0 13
-1 13 -10 0 -5 -8 -10 -10 -10 -4 0 6 -7 11 -15 11 -8 0 -15 -4 -15 -9 0 -4
-9 -8 -19 -8 -11 0 -21 -4 -23 -8 -1 -4 -28 -15 -58 -24 -30 -8 -63 -19 -74
-23 -14 -6 -17 -4 -14 11 2 10 8 19 13 20 6 0 18 4 28 8 9 5 24 5 33 2 12 -5
15 -2 10 9 -3 10 -2 13 4 10 6 -4 29 -4 52 0 29 5 37 10 27 16 -11 7 -10 9 5
9 19 0 163 42 218 64 23 9 26 15 22 41 -4 23 -1 19 11 -13 9 -24 14 -46 11
-50z m6255 79 c-8 -5 -20 -7 -28 -4 -21 8 -15 13 15 13 20 0 23 -3 13 -9z
m214 -1 c-3 -5 -14 -10 -23 -10 -15 0 -15 2 -2 10 20 13 33 13 25 0z m-1376
-23 c2 -5 8 -3 13 4 7 10 8 8 3 -6 -5 -11 -15 -40 -24 -65 -15 -43 -16 -43
-19 -16 -2 16 2 33 10 38 17 11 -16 38 -49 38 -13 0 -23 6 -23 14 0 11 10 13
43 9 23 -4 44 -10 46 -16z m634 11 c12 -6 35 -14 52 -18 16 -4 39 -11 49 -16
15 -5 17 -4 11 6 -8 13 5 8 30 -12 6 -4 21 -17 35 -27 l25 -20 -35 8 c-19 4
-44 13 -55 19 -11 6 -37 14 -58 17 -21 3 -35 10 -32 16 4 5 -4 9 -17 9 -19 0
-20 -2 -8 -11 11 -7 4 -8 -25 -3 -22 4 -43 11 -46 17 -4 5 -16 6 -28 2 -12 -3
-21 -2 -21 4 0 19 91 27 123 9z m601 -2 c18 -7 51 -17 73 -20 44 -8 185 -55
220 -74 12 -7 32 -12 45 -12 13 0 31 -9 41 -20 9 -11 13 -20 8 -20 -5 0 -14 7
-21 15 -7 8 -16 13 -20 10 -8 -5 -39 4 -135 40 -38 15 -92 33 -120 40 -110 31
-135 39 -135 47 0 11 5 10 44 -6z m-7307 -16 c-3 -11 -1 -18 4 -14 5 3 9 13
10 22 0 10 6 5 14 -13 21 -45 19 -56 -9 -51 -14 2 -26 0 -28 -5 -2 -5 -24 -10
-50 -11 -26 -1 -42 -6 -35 -10 6 -4 9 -9 7 -11 -4 -3 -108 -48 -147 -64 -8 -3
-13 3 -13 18 0 12 -3 19 -7 15 -5 -4 -8 -11 -8 -15 0 -18 -48 -50 -115 -76
-41 -16 -82 -34 -90 -41 -8 -6 -30 -15 -48 -19 -18 -4 -39 -13 -46 -21 -8 -7
-35 -15 -60 -16 -44 -1 -60 -11 -33 -21 6 -2 -7 -7 -31 -12 -33 -5 -42 -11
-38 -22 4 -10 2 -13 -8 -10 -8 3 -17 1 -19 -6 -6 -16 -14 -7 -22 25 -9 35 24
69 85 86 25 8 63 22 85 33 22 10 48 19 57 19 9 0 19 4 22 8 9 15 178 92 201
92 8 0 15 5 15 10 0 6 5 10 12 10 11 0 78 28 119 50 9 5 37 11 63 15 25 4 46
11 46 17 0 5 15 15 33 23 41 18 40 18 34 -5z m1393 -5 c0 -7 -6 -15 -14 -18
-9 -4 -12 2 -11 16 3 29 3 29 15 22 6 -3 10 -12 10 -20z m1959 -74 c25 -53 25
-57 8 -42 -8 6 -17 8 -21 4 -4 -4 -11 -1 -16 7 -8 13 -10 12 -10 -2 0 -10 -4
-18 -10 -18 -11 0 -14 133 -3 143 3 4 12 -5 19 -20 7 -16 22 -48 33 -72z m986
89 c3 -5 16 -10 27 -10 19 0 20 -4 14 -52 -3 -29 -6 -65 -6 -80 0 -21 -4 -26
-16 -21 -9 3 -20 0 -25 -8 -6 -10 -9 -6 -10 16 -1 17 -3 23 -6 14 -3 -11 -14
-16 -34 -15 -28 1 -29 3 -29 47 0 44 1 46 27 44 20 -1 29 -8 34 -25 7 -24 7
-24 9 5 2 24 4 26 7 8 5 -24 18 -30 28 -13 3 6 1 10 -6 10 -7 0 -5 6 6 13 26
19 12 34 -30 32 -27 -1 -35 2 -35 16 0 24 33 38 45 19z m429 -6 c3 -8 2 -12
-4 -9 -6 3 -10 10 -10 16 0 14 7 11 14 -7z m92 -11 c-10 -10 -19 5 -10 18 6
11 8 11 12 0 2 -7 1 -15 -2 -18z m2304 17 c0 -5 9 -10 19 -10 11 0 23 -4 26
-10 3 -5 19 -10 36 -10 16 0 29 -4 29 -10 0 -5 13 -10 28 -10 16 0 44 -7 62
-16 30 -16 72 -28 130 -41 14 -2 43 -13 65 -22 22 -10 54 -22 70 -26 17 -5 23
-10 15 -12 -8 -2 -37 3 -65 11 -56 17 -78 8 -58 -23 22 -35 -4 -39 -85 -12
-42 14 -80 29 -83 34 -8 12 -111 47 -136 47 -13 0 -23 4 -23 9 0 6 -20 13 -45
17 -25 3 -45 10 -45 15 0 12 -60 6 -85 -9 -19 -11 -18 -11 8 -12 16 0 26 -4
22 -10 -4 -6 11 -10 39 -10 25 0 48 -4 51 -10 3 -5 17 -10 31 -10 13 0 24 -4
24 -10 0 -5 7 -10 16 -10 17 0 182 -55 229 -77 29 -14 29 -14 -20 -8 -44 4
-122 28 -180 55 -11 5 -51 18 -90 29 -122 35 -185 56 -184 61 0 5 179 98 192
99 4 1 7 -3 7 -9z m366 -5 c10 -8 28 -15 39 -15 13 -1 15 -4 6 -7 -16 -7 -91
17 -91 29 0 13 24 9 46 -7z m-3255 -9 c5 3 9 -1 9 -9 0 -8 -7 -17 -15 -21 -11
-4 -15 2 -14 22 0 15 3 21 6 14 2 -6 9 -10 14 -6z m-3458 -13 c-7 -2 -19 -2
-25 0 -7 3 -2 5 12 5 14 0 19 -2 13 -5z m-83 -11 c0 -14 -69 -42 -75 -32 -4 6
7 13 24 16 17 4 31 10 31 15 0 5 5 9 10 9 6 0 10 -4 10 -8z m5266 -11 c25 4
34 -4 34 -31 0 -35 -19 -41 -21 -7 l-2 22 -4 -22 c-4 -23 -23 -32 -23 -12 0 8
-4 8 -14 0 -12 -10 -13 -6 -4 29 6 23 14 37 18 30 4 -6 11 -10 16 -9z m1621
13 c-3 -3 -12 -4 -19 -1 -8 3 -5 6 6 6 11 1 17 -2 13 -5z m-2847 -29 c0 14 80
13 80 -1 0 -6 -23 -12 -55 -13 -51 -1 -55 0 -55 21 0 21 0 21 15 2 8 -10 15
-14 15 -9z m-2880 -15 c0 -16 -4 -30 -10 -30 -5 0 -10 6 -10 13 0 8 -4 7 -10
-3 -8 -12 -10 -9 -10 12 0 23 10 35 33 37 4 1 7 -12 7 -29z m5844 3 c28 -9 56
-20 61 -26 7 -7 3 -8 -10 -3 -11 4 -28 9 -38 11 -37 8 -62 18 -82 33 -19 14
-19 14 -1 8 11 -4 43 -14 70 -23z m-5894 -7 c0 -22 -4 -23 -101 -30 -55 -4
-144 -18 -197 -32 -107 -27 -122 -28 -122 -14 0 6 10 10 21 10 12 0 40 5 63
11 22 6 57 14 76 19 19 5 61 16 93 25 31 9 64 14 72 11 8 -3 31 1 52 9 21 7
39 14 41 14 1 1 2 -10 2 -23z m2049 -18 c0 -33 -2 -38 -9 -23 -8 19 -9 19 -11
-2 -1 -13 -2 -27 -3 -33 -1 -5 3 -10 8 -9 15 1 26 -25 26 -66 -1 -37 -2 -39
-15 -21 -8 11 -15 15 -15 9 0 -6 -11 -8 -26 -5 -16 3 -30 -1 -36 -9 -17 -25 2
33 40 118 21 45 38 83 40 83 1 0 2 -19 1 -42z m-3259 22 c0 -5 -5 -10 -11 -10
-5 0 -7 5 -4 10 3 6 8 10 11 10 2 0 4 -4 4 -10z m357 -12 c-3 -8 -6 -5 -6 6
-1 11 2 17 5 13 3 -3 4 -12 1 -19z m4247 -4 c3 -8 2 -12 -4 -9 -6 4 -10 -9 -9
-32 1 -37 2 -37 8 -8 7 31 8 30 36 -17 40 -68 65 -121 60 -126 -3 -4 -9 -2
-13 3 -4 6 -22 11 -41 12 -18 1 -39 8 -47 14 -10 8 -14 8 -14 0 0 -6 -5 -11
-11 -11 -7 0 -9 13 -6 38 4 20 8 58 10 84 6 62 19 84 31 52z m-5184 -10 c0 -8
-17 -22 -37 -30 -21 -8 -47 -19 -58 -24 -40 -18 -116 -40 -138 -40 -16 1 -11
5 16 14 20 8 43 18 50 23 6 5 38 18 70 27 31 10 57 22 57 27 0 4 7 6 15 3 8
-4 15 -1 15 5 0 6 2 11 5 11 3 0 5 -7 5 -16z m4764 0 c24 6 24 5 22 -49 -3
-59 -11 -79 -22 -50 -4 10 -2 26 4 36 15 23 15 49 2 49 -5 0 -10 -9 -10 -21 0
-29 -31 -64 -57 -65 -25 -1 -27 7 -16 71 l6 40 14 -30 14 -30 -6 34 c-4 29 -3
32 10 21 8 -7 25 -10 39 -6z m-4284 -3 c0 -6 -4 -13 -10 -16 -5 -3 -10 1 -10
9 0 9 5 16 10 16 6 0 10 -4 10 -9z m24 -7 c3 -8 2 -12 -4 -9 -6 3 -10 10 -10
16 0 14 7 11 14 -7z m427 -11 c0 -15 2 -15 9 2 8 19 9 19 9 -3 1 -17 -4 -23
-16 -20 -19 4 -31 38 -14 38 6 0 11 -8 12 -17z m-481 -8 c0 -8 -4 -15 -10 -15
-5 0 -10 7 -10 15 0 8 5 15 10 15 6 0 10 -7 10 -15z m1380 -15 c0 -15 -5 -19
-22 -16 -13 2 -34 -1 -48 -6 -14 -5 -101 -22 -195 -38 -93 -16 -178 -32 -187
-35 -13 -5 -18 -2 -18 10 0 9 5 13 10 10 6 -3 10 -1 10 4 0 6 15 11 33 11 18
0 53 7 78 14 24 8 85 20 134 26 50 5 113 16 140 24 68 18 65 19 65 -4z m4090
-5 c1 17 4 25 6 19 2 -6 18 -8 34 -6 27 4 30 1 30 -21 0 -32 -9 -57 -21 -57
-5 0 -9 6 -9 14 0 9 -12 13 -37 12 -25 -1 -38 4 -40 14 -4 13 -3 13 7 0 9 -12
11 -10 6 11 -3 14 -2 29 2 33 4 4 10 -5 13 -21 l7 -28 2 30z m510 -12 c0 -2
-5 -2 -11 0 -6 1 -13 -3 -16 -9 -3 -8 11 -10 45 -7 l49 4 11 -42 c11 -44 7
-64 -7 -40 -5 7 -25 13 -45 14 -20 1 -36 5 -36 10 0 4 -4 6 -9 3 -8 -5 -21 47
-21 86 0 17 1 17 20 1 11 -10 20 -19 20 -20z m-5680 17 c0 -5 -5 -10 -11 -10
-5 0 -7 5 -4 10 3 6 8 10 11 10 2 0 4 -4 4 -10z m150 0 c0 -5 -17 -12 -37 -16
-21 -3 -46 -16 -55 -28 -13 -15 -18 -17 -18 -6 -1 11 -4 10 -16 -5 -13 -17
-16 -18 -24 -5 -15 23 -12 40 6 33 9 -3 19 -1 23 4 3 6 26 15 51 21 60 13 70
14 70 2z m460 -10 c7 -14 8 -26 1 -38 -8 -13 -10 -14 -11 -2 0 8 -3 25 -6 38
-8 27 2 29 16 2z m-1311 -64 c1 -5 -7 -2 -16 5 -9 8 -14 9 -10 3 7 -12 -21
-21 -101 -31 -34 -4 -41 -8 -32 -19 10 -11 5 -12 -25 -7 -25 4 -35 2 -33 -6 3
-12 -104 -61 -134 -61 -10 0 -26 -8 -37 -19 -10 -10 -36 -24 -57 -31 -22 -7
-70 -28 -108 -47 -38 -18 -71 -31 -73 -29 -3 2 5 7 16 11 12 3 21 10 21 15 0
5 14 11 30 15 17 4 36 12 43 18 7 7 40 26 72 42 33 17 62 33 63 38 2 4 11 7
19 7 13 0 13 3 2 16 -22 27 16 40 106 36 25 -1 27 0 10 7 -18 7 -15 11 24 30
41 22 55 22 114 5 9 -3 17 -1 17 5 0 6 -9 11 -19 11 -38 0 -32 20 8 26 22 4
49 12 58 20 16 11 19 9 30 -19 6 -18 12 -36 12 -41z m428 39 c-9 -21 -27 -19
-27 3 0 14 2 15 10 2 8 -13 10 -12 10 4 0 11 3 17 6 13 4 -3 4 -13 1 -22z
m2885 -36 c12 -27 13 -39 5 -36 -7 2 -17 19 -24 38 -7 19 -12 26 -12 17 -1 -9
4 -29 9 -44 9 -22 8 -25 -3 -16 -8 7 -17 9 -21 5 -4 -4 -10 4 -13 17 -6 22 -7
23 -14 4 -6 -16 -8 -14 -8 9 -1 16 4 37 9 47 15 29 51 8 72 -41z m3027 14 c1
-7 -6 -13 -14 -13 -10 0 -14 7 -11 23 3 12 5 27 6 32 2 12 18 -25 19 -42z
m1271 24 c9 -3 3 -6 -12 -6 -20 -1 -28 4 -28 15 0 12 4 14 13 7 6 -6 19 -13
27 -16z m-4400 3 c12 20 16 -2 9 -50 -3 -25 -7 -36 -8 -25 -1 17 -3 18 -11 5
-7 -11 -10 -1 -9 35 0 28 3 44 6 36 4 -10 7 -10 13 -1z m976 -13 c9 3 14 -2
14 -12 0 -13 4 -15 13 -8 27 22 45 11 49 -29 4 -43 -8 -52 -15 -10 -4 26 -4
26 -12 5 -8 -24 -55 -34 -55 -12 0 8 -5 8 -15 -1 -13 -11 -15 -6 -15 36 0 35
3 45 11 37 6 -6 18 -9 25 -6z m-1356 -37 c0 -22 -4 -41 -10 -41 -40 -5 -45 -2
-56 37 l-12 40 39 3 39 2 0 -41z m3690 21 c0 -11 -4 -23 -10 -26 -6 -4 -10 5
-10 19 0 14 5 26 10 26 6 0 10 -9 10 -19z m-24 -41 c5 -33 5 -34 -10 -16 -9
11 -16 31 -16 45 0 35 18 14 26 -29z m-6846 20 c-26 -20 -66 -28 -55 -10 3 6
15 10 25 10 10 0 22 5 25 10 3 6 12 10 18 10 7 0 1 -9 -13 -20z m6190 -12 c0
-16 -3 -19 -11 -11 -6 6 -8 16 -5 22 11 17 16 13 16 -11z m83 3 c4 -1 7 -26 7
-56 0 -36 -4 -54 -11 -52 -6 1 -14 -5 -16 -13 -4 -12 -3 -13 5 -1 14 19 31
-14 30 -57 -1 -26 -4 -30 -15 -21 -7 7 -11 20 -8 30 9 27 -4 24 -15 -3 -7 -20
-9 -20 -9 -4 -1 14 -4 16 -14 7 -22 -17 -67 8 -68 39 -1 20 -3 18 -9 -10 -5
-24 -8 -28 -9 -12 -1 21 18 112 25 121 2 2 16 -4 31 -14 15 -10 38 -19 50 -21
18 -2 23 3 23 22 0 13 -3 23 -7 22 -14 -3 -63 14 -63 22 0 4 15 6 33 4 17 -1
35 -3 40 -3z m-5908 -22 c10 -30 0 -33 -13 -4 -6 14 -7 25 -2 25 5 0 12 -9 15
-21z m4665 10 c0 -4 9 -5 20 -2 26 7 37 -21 17 -42 -17 -17 -74 -20 -96 -6
-25 16 2 61 34 59 14 -1 25 -5 25 -9z m-3746 -23 c-3 -9 -14 -16 -24 -16 -11
0 -22 -4 -25 -10 -3 -5 -15 -10 -25 -10 -35 0 -100 -32 -100 -49 0 -14 -2 -14
-10 -1 -16 25 -11 40 14 40 14 0 28 5 31 10 3 6 16 10 28 10 13 0 43 10 67 23
51 26 53 26 44 3z m5399 8 c4 -1 13 -2 21 -3 10 -1 14 -11 12 -33 -2 -18 -1
-23 1 -10 4 20 10 22 45 20 22 -1 42 -8 45 -15 4 -10 9 -9 20 4 13 17 14 16 9
-7 -11 -58 -28 -116 -35 -123 -4 -4 -18 2 -31 13 -13 11 -34 23 -47 26 -14 4
-23 14 -23 25 0 10 -4 19 -8 19 -4 0 -7 -17 -5 -37 l4 -38 -15 30 c-8 17 -15
24 -15 16 -2 -29 -15 0 -18 41 -6 54 4 91 20 81 7 -4 15 -8 20 -9z m-6335 -20
c2 -14 1 -16 -6 -6 -7 11 -10 11 -15 -2 -6 -15 -37 -23 -37 -9 0 11 35 42 45
39 6 -1 11 -11 13 -22z m-472 1 c-15 -8 -35 -15 -42 -15 -8 0 -14 -4 -14 -9 0
-5 -13 -11 -30 -13 -16 -3 -30 -1 -30 4 0 4 6 8 13 8 7 0 31 9 53 20 48 23 96
29 50 5z m3838 -47 c13 -29 26 -62 30 -73 5 -17 14 -20 53 -18 27 1 80 2 119
2 70 1 72 2 79 29 14 59 55 128 55 94 0 -5 23 -8 50 -8 l50 2 -1 -41 c-3 -71
0 -85 19 -85 13 0 14 2 4 9 -18 11 83 21 211 21 84 0 98 -2 93 -15 -3 -8 -2
-15 2 -15 12 0 32 53 33 89 l1 36 8 -30 c7 -28 8 -28 9 -5 1 22 5 25 38 24 42
-1 40 7 35 -115 l-2 -42 -97 8 c-148 11 -596 9 -698 -3 -49 -6 -169 -14 -265
-17 -229 -8 -257 -10 -375 -23 -55 -6 -127 -14 -160 -16 -106 -8 -459 -46
-489 -52 -19 -4 -31 -2 -37 7 -14 23 -11 25 25 21 19 -2 65 5 103 17 64 20
143 37 205 46 20 2 25 0 21 -11 -8 -21 10 -17 24 5 7 11 27 22 45 26 18 4 67
18 108 31 41 14 85 25 98 27 37 3 55 29 42 62 -6 15 -8 30 -5 33 2 3 9 -6 14
-19 9 -22 10 -22 10 10 1 55 12 29 14 -35 4 -90 -1 -88 159 -80 101 6 143 4
153 -4 27 -22 45 12 46 87 0 37 3 62 6 55 2 -6 9 -10 14 -6 5 3 9 0 9 -6 0 -6
4 -9 9 -5 6 3 14 -3 20 -12 9 -16 10 -16 11 5 0 18 6 22 34 22 36 0 50 -16 40
-47 -5 -17 -5 -17 6 -1 8 13 8 23 0 37 -11 22 -13 31 -5 31 3 0 16 -24 29 -52z
m-3754 32 c0 -5 -7 -10 -16 -10 -8 0 -12 5 -9 10 3 6 10 10 16 10 5 0 9 -4 9
-10z m2145 -109 l-7 -26 -14 25 -14 25 2 -25 c2 -19 -1 -24 -14 -22 -10 2 -18
-3 -19 -10 -1 -20 -18 24 -18 50 -1 12 4 22 9 22 6 0 10 -12 11 -27 l1 -28 7
25 c4 15 15 26 29 28 18 3 22 10 24 45 2 41 2 41 5 -7 3 -27 1 -61 -2 -75z
m665 88 c0 -6 -4 -7 -10 -4 -5 3 -10 11 -10 16 0 6 5 7 10 4 6 -3 10 -11 10
-16z m2714 -1 c-1 -10 2 -18 7 -18 5 0 9 7 9 15 0 12 7 14 28 9 15 -4 31 -10
36 -15 5 -5 15 -4 22 2 10 8 15 5 20 -15 13 -54 -15 -72 -56 -36 -13 11 -26
16 -29 11 -3 -5 -27 -7 -54 -4 -42 5 -47 8 -47 31 0 22 2 23 17 11 15 -13 15
-12 4 9 -12 22 -11 23 16 20 19 -2 28 -8 27 -20z m-2744 2 c0 -13 -11 -13 -30
0 -12 8 -11 10 8 10 12 0 22 -4 22 -10z m-2340 -36 c0 -5 -23 -18 -50 -28 -28
-10 -56 -24 -63 -30 -7 -7 -30 -17 -52 -23 -63 -18 -115 -39 -127 -51 -7 -7
-19 -12 -27 -12 -13 0 -92 -34 -151 -65 -65 -34 -92 -47 -180 -90 -52 -26
-117 -58 -143 -73 -41 -21 -50 -23 -58 -11 -13 21 -12 46 2 32 8 -8 24 -4 59
18 26 16 52 29 59 29 6 0 11 4 11 9 0 5 12 12 28 15 15 4 77 31 137 60 178 87
243 116 258 116 8 0 20 7 27 15 7 8 21 15 31 15 10 0 21 5 24 10 3 6 17 10 31
10 13 0 24 5 24 10 0 6 7 10 16 10 9 0 30 10 47 22 17 13 42 21 54 20 17 -3
23 2 23 15 0 15 2 16 10 3 5 -8 10 -20 10 -26z m2240 25 c-25 -4 -58 -7 -75
-7 l-30 0 30 8 c17 4 50 8 75 8 l45 -1 -45 -8z m-2910 -19 c0 -5 -5 -10 -11
-10 -5 0 -7 5 -4 10 3 6 8 10 11 10 2 0 4 -4 4 -10z m2788 3 c-10 -2 -26 -2
-35 0 -10 3 -2 5 17 5 19 0 27 -2 18 -5z m292 -89 c0 -9 -11 -14 -32 -14 -29
0 -258 -32 -298 -41 -8 -2 -18 -8 -22 -14 -14 -19 -7 50 7 75 8 14 14 21 15
16 0 -5 6 -3 14 3 8 7 29 13 48 14 18 1 39 6 46 10 7 5 21 5 32 2 11 -4 20 -2
20 3 0 6 25 12 56 14 l55 3 -6 -35 c-5 -33 -4 -34 10 -16 8 11 15 34 15 50 0
30 1 30 20 -13 11 -24 20 -49 20 -57z m2167 77 c-2 -10 -1 -25 4 -32 6 -10 9
-6 9 14 0 31 -2 30 39 16 33 -12 41 -41 21 -78 -8 -16 -3 -19 43 -24 94 -12
272 -35 286 -39 10 -2 18 14 27 52 6 30 12 47 13 38 0 -9 5 -19 10 -22 5 -4 7
3 4 15 -5 18 -3 20 14 11 10 -6 48 -14 83 -18 36 -3 70 -10 75 -13 6 -4 20 -6
32 -5 18 1 28 -12 57 -73 20 -41 36 -78 36 -84 0 -5 9 -9 20 -9 11 0 20 -5 20
-11 0 -12 -72 -3 -100 12 -8 4 -45 11 -82 14 -38 4 -68 11 -68 16 0 5 -36 9
-80 9 -65 0 -80 3 -80 15 0 12 -8 14 -39 9 -21 -3 -54 -1 -72 5 -19 6 -57 12
-85 13 -29 2 -50 6 -48 9 7 13 -29 19 -42 8 -7 -6 -21 -8 -31 -5 -10 3 -37 6
-61 8 -34 1 -41 5 -36 17 7 18 10 45 12 109 1 23 7 42 13 42 6 0 9 -9 6 -19z
m-5277 5 c0 -3 -4 -8 -10 -11 -5 -3 -10 -1 -10 4 0 6 5 11 10 11 6 0 10 -2 10
-4z m5939 -51 c0 -5 -4 -3 -9 5 -5 8 -9 22 -9 30 0 16 17 -16 18 -35z m1847
-5 c8 0 14 -6 14 -12 0 -9 4 -8 10 2 8 13 10 13 10 -2 0 -11 5 -15 15 -12 8 4
34 -3 58 -14 23 -11 57 -23 74 -27 18 -3 35 -11 38 -16 4 -5 14 -9 23 -9 10 0
53 -18 97 -40 44 -22 86 -40 93 -40 6 0 29 -9 49 -20 21 -11 53 -23 72 -26 19
-4 44 -15 55 -25 11 -11 30 -19 43 -19 13 0 23 -3 23 -7 0 -10 65 -39 103 -47
15 -4 27 -13 27 -22 0 -8 8 -18 18 -21 9 -4 35 -19 56 -35 21 -15 45 -28 53
-28 8 0 21 -6 28 -12 33 -30 41 -34 53 -30 7 2 21 -3 32 -13 10 -9 31 -20 46
-26 l29 -9 -28 4 c-35 4 -47 -19 -21 -39 26 -20 9 -19 -21 1 -14 9 -25 24 -25
33 0 11 -3 12 -8 4 -10 -15 -49 -6 -56 13 -3 8 -18 14 -34 14 -16 0 -41 9 -55
20 -14 11 -31 20 -39 20 -7 0 -24 9 -38 20 -14 11 -32 20 -41 20 -9 0 -22 7
-29 15 -7 8 -21 15 -31 15 -21 0 -88 29 -106 47 -7 6 -27 14 -45 18 -46 9 -98
34 -104 50 -3 7 -13 11 -23 8 -9 -2 -39 7 -66 20 -28 14 -67 31 -87 38 -20 7
-35 16 -32 21 3 4 -1 9 -8 9 -7 1 -20 3 -28 3 -42 5 -142 40 -203 72 -15 9
-31 13 -36 9 -15 -9 -23 12 -13 32 6 10 16 31 23 47 10 21 15 24 17 13 2 -10
10 -17 18 -17z m-7057 -30 c1 -9 -19 -23 -47 -34 -26 -11 -60 -28 -77 -40
l-29 -20 24 -7 c14 -4 2 -5 -25 -2 -39 4 -54 1 -64 -11 -7 -9 -22 -16 -32 -16
-11 0 -19 -4 -19 -9 0 -5 -10 -13 -22 -17 -13 -3 -30 -12 -38 -19 -8 -7 -34
-16 -57 -20 -24 -4 -43 -11 -43 -16 0 -5 -7 -9 -15 -9 -8 0 -15 -4 -15 -10 0
-5 -5 -10 -12 -10 -6 0 -19 -6 -27 -14 -9 -7 -49 -30 -89 -51 -61 -32 -75 -36
-84 -24 -8 11 -9 11 -4 -3 8 -25 -29 -44 -52 -27 -9 8 -14 9 -10 5 12 -14 -12
-36 -38 -36 -13 0 -28 9 -34 20 -9 17 -8 20 12 20 13 0 34 7 46 16 12 8 27 12
32 9 6 -3 10 -2 10 2 0 5 26 22 58 38 31 16 60 33 63 38 4 5 24 10 45 11 27 1
41 6 46 19 4 9 21 20 38 23 16 4 30 10 30 14 0 10 139 77 178 85 17 4 32 10
32 13 0 10 51 32 73 32 10 0 39 14 63 31 25 17 52 28 60 25 11 -4 13 1 9 22
-4 22 -4 24 4 7 5 -11 10 -27 10 -35z m6266 0 c8 0 12 -8 9 -22 -5 -23 -5 -23
5 -1 9 19 13 20 49 11 26 -6 42 -17 45 -29 3 -11 14 -19 25 -19 29 0 56 -12
44 -19 -6 -3 9 -6 32 -7 23 0 51 -6 61 -11 17 -10 14 -13 -23 -24 -33 -9 -45
-10 -54 -1 -7 7 -19 12 -27 11 -11 0 -10 -3 4 -9 19 -8 19 -9 -3 -9 -34 -1
-112 20 -112 30 0 5 -7 9 -15 9 -19 0 -85 88 -85 114 0 20 0 20 16 -2 8 -12
21 -22 29 -22z m-5356 -17 c8 -18 9 -29 1 -37 -7 -7 -10 -3 -11 15 -1 21 -2
20 -12 -9 -12 -38 -4 -51 22 -35 16 10 20 9 25 -12 3 -13 9 -31 13 -42 6 -17
6 -17 -14 0 -18 16 -22 16 -35 4 -10 -10 -20 -12 -31 -5 -10 5 -17 5 -17 0 0
-10 -129 -34 -141 -26 -5 3 -17 0 -28 -5 -29 -16 -121 -25 -121 -13 0 12 -26
22 -72 27 -36 5 -34 3 -42 32 -6 19 -2 22 39 28 25 4 45 11 45 15 0 7 47 23
75 25 6 1 20 6 33 13 12 7 22 10 22 6 0 -3 6 -1 14 5 10 8 16 9 21 1 4 -6 13
-7 23 -1 9 4 42 11 72 15 30 4 58 13 62 19 5 7 8 0 8 -18 1 -29 2 -29 11 -7 5
13 7 28 4 33 -4 5 0 6 8 3 8 -3 20 -17 26 -31z m4901 -13 c22 0 33 -6 40 -22
9 -23 9 -23 10 2 1 22 4 21 20 -15 21 -46 19 -53 -13 -37 -12 6 -48 14 -79 17
-48 5 -58 10 -58 26 0 10 -4 19 -10 19 -5 0 -10 -7 -10 -15 0 -9 -6 -12 -15
-9 -10 4 -13 14 -9 33 10 40 11 40 54 20 21 -10 53 -19 70 -19z m-4152 -57
c-5 -7 -4 -14 3 -18 8 -6 7 -11 -6 -17 -23 -13 -32 -2 -39 52 -6 42 -6 43 7
21 l14 -24 8 29 8 29 7 -30 c3 -16 2 -35 -2 -42z m-1638 43 c0 -2 -8 -10 -17
-17 -16 -13 -17 -12 -4 4 13 16 21 21 21 13z m3825 -6 c16 -7 11 -9 -20 -9
-29 -1 -36 2 -25 9 17 11 19 11 45 0z m-116 -4 c-2 -2 -29 -6 -59 -9 -34 -3
-47 -2 -35 3 19 8 103 14 94 6z m404 -8 c-5 -10 -131 -9 -198 1 -36 5 -14 7
76 7 70 -1 125 -4 122 -8z m-633 -8 c-41 -4 -114 -8 -162 -9 -49 0 -88 -5 -88
-10 0 -5 -69 -11 -152 -14 -192 -6 -590 -39 -781 -64 -22 -3 -44 0 -50 6 -8 8
1 11 33 12 62 2 88 4 140 12 100 16 135 19 654 52 127 9 232 18 235 20 2 3 59
4 125 3 116 -1 118 -2 46 -8z m757 -6 c-3 -3 -12 -4 -19 -1 -8 3 -5 6 6 6 11
1 17 -2 13 -5z m2729 -21 c-6 -27 -6 -27 9 -9 8 11 15 15 15 10 0 -5 11 -11
23 -12 13 -1 44 -11 68 -22 24 -11 51 -20 60 -20 9 0 22 -7 29 -15 7 -8 22
-15 34 -15 12 0 42 -13 67 -28 24 -15 78 -39 119 -52 41 -14 81 -30 88 -37 7
-7 27 -13 43 -13 16 0 29 -4 29 -9 0 -5 39 -25 86 -46 47 -20 100 -45 117 -55
17 -11 34 -17 38 -15 4 3 12 -2 19 -10 7 -8 18 -15 26 -15 7 0 19 -6 26 -12 7
-7 30 -21 51 -30 21 -10 37 -25 38 -35 0 -11 3 -13 6 -5 2 6 10 12 17 12 21 0
66 -25 66 -37 0 -6 9 -9 20 -6 17 5 20 0 20 -26 0 -17 4 -31 9 -31 6 0 23 -12
39 -27 25 -24 28 -34 24 -70 -4 -40 -22 -57 -36 -34 -3 5 -27 19 -52 31 -26
12 -53 28 -61 36 -8 8 -23 14 -34 14 -11 0 -19 6 -18 13 3 24 -1 37 -12 37 -8
0 -8 -5 1 -15 16 -19 2 -19 -44 0 -29 12 -36 20 -31 34 4 15 1 17 -20 13 -26
-4 -35 12 -12 22 6 3 0 4 -15 1 -15 -3 -30 -1 -33 5 -3 5 -14 10 -24 10 -10 0
-21 9 -24 21 -3 11 -11 19 -19 18 -15 -3 -131 50 -136 63 -2 4 -10 8 -18 8 -8
0 -14 4 -14 8 0 4 -24 16 -52 26 -29 10 -62 24 -73 31 -11 6 -41 18 -67 26
-27 7 -48 17 -48 21 0 4 -20 13 -44 19 -25 6 -47 17 -50 25 -3 8 -16 14 -29
14 -14 0 -50 11 -81 25 -31 14 -63 25 -71 25 -8 0 -15 5 -15 11 0 6 -8 9 -17
7 -12 -2 -23 8 -35 32 -9 20 -17 28 -17 18 -1 -9 4 -20 9 -23 12 -7 4 -25 -11
-25 -5 0 -9 7 -9 16 0 14 -3 14 -15 4 -19 -16 -19 -1 -1 36 8 16 19 41 25 57
6 15 13 27 17 27 3 0 3 -12 0 -27z m-2548 0 c-10 -2 -26 -2 -35 0 -10 3 -2 5
17 5 19 0 27 -2 18 -5z m1263 -7 c6 3 22 1 37 -4 15 -6 45 -14 67 -18 l40 -7
-30 -8 c-23 -6 -17 -7 21 -4 31 2 56 -1 63 -8 9 -9 11 -8 6 6 -13 33 2 16 38
-42 20 -32 63 -83 96 -114 l60 -55 -46 14 c-26 8 -59 14 -74 14 -15 0 -31 5
-34 10 -3 6 -17 10 -31 10 -14 0 -23 4 -19 9 3 6 -16 13 -42 16 -79 11 -216
35 -220 38 -5 5 21 71 31 78 5 4 5 12 2 18 -4 6 -2 11 4 11 6 0 8 5 5 10 -4 6
-4 19 0 28 5 12 9 13 12 4 3 -6 9 -9 14 -6z m-3674 -38 c-3 -7 -5 -2 -5 12 0
14 2 19 5 13 2 -7 2 -19 0 -25z m-2534 -23 c-3 -9 -8 -14 -10 -11 -3 3 -2 9 2
15 9 16 15 13 8 -4z m567 5 c0 -5 -4 -10 -10 -10 -5 0 -10 5 -10 10 0 6 5 10
10 10 6 0 10 -4 10 -10z m1875 0 c-97 -20 -125 -22 -125 -12 0 15 25 20 100
20 59 0 61 -1 25 -8z m955 -9 c-24 -14 -191 -32 -208 -22 -21 12 24 18 198 29
19 1 21 -1 10 -7z m-2413 -23 c-3 -8 -6 -5 -6 6 -1 11 2 17 5 13 3 -3 4 -12 1
-19z m1751 15 c-10 -2 -26 -2 -35 0 -10 3 -2 5 17 5 19 0 27 -2 18 -5z m2275
-8 c60 -16 155 -61 197 -94 30 -24 28 -26 -82 -118 l-79 -66 -42 24 c-35 20
-56 24 -122 24 -68 0 -86 -4 -123 -26 -110 -67 -162 -237 -116 -376 49 -147
234 -202 341 -101 38 35 30 48 -31 48 -29 0 -68 3 -85 6 l-31 6 1 87 c1 47 4
100 8 116 l6 30 85 -3 c115 -5 359 -28 366 -35 9 -9 -25 -214 -45 -266 -22
-60 -92 -160 -129 -188 -92 -68 -204 -93 -336 -75 -169 22 -296 113 -369 262
-146 297 -2 655 297 741 76 22 213 24 289 4z m-5343 -15 c-24 -15 -36 -11 -14
4 10 8 21 12 24 10 2 -3 -2 -9 -10 -14z m300 10 c0 -5 -4 -10 -10 -10 -5 0
-10 5 -10 10 0 6 5 10 10 10 6 0 10 -4 10 -10z m1504 -41 c-3 -5 0 -9 5 -9 21
0 11 -36 -10 -37 -21 -2 -21 -1 -5 52 3 11 -2 3 -12 -17 -15 -34 -23 -39 -72
-49 -30 -6 -67 -18 -82 -25 -15 -8 -31 -14 -35 -14 -5 0 -21 -4 -38 -9 -16 -5
-50 -14 -75 -21 -25 -6 -53 -16 -62 -21 -10 -5 -24 -9 -32 -9 -16 0 -33 58
-20 69 13 11 72 27 144 41 36 7 69 17 75 21 5 5 22 9 37 9 15 0 28 5 28 10 0
6 14 10 31 10 50 0 109 21 110 39 0 10 4 7 10 -7 5 -13 7 -28 3 -33z m824 44
c-10 -2 -28 -2 -40 0 -13 2 -5 4 17 4 22 1 32 -1 23 -4z m865 -7 c3 -8 -1 -17
-9 -20 -22 -9 -23 -8 -21 14 1 23 22 27 30 6z m1117 4 c0 -5 -2 -10 -4 -10 -3
0 -8 5 -11 10 -3 6 -1 10 4 10 6 0 11 -4 11 -10z m336 -8 c-17 -7 -32 -9 -33
-5 -2 4 -61 7 -132 5 -76 -2 -138 1 -148 7 -13 7 37 9 163 8 159 -2 177 -4
150 -15z m1284 8 c0 -5 -7 -10 -15 -10 -8 0 -15 5 -15 10 0 6 7 10 15 10 8 0
15 -4 15 -10z m-3360 -10 c-14 -4 -36 -8 -50 -9 -20 -1 -22 1 -10 9 8 5 31 9
50 9 32 -1 33 -2 10 -9z m580 1 c0 -12 -45 -22 -64 -15 -9 3 -23 1 -31 -6 -8
-7 -26 -10 -40 -6 -14 4 -25 3 -25 -1 0 -12 -108 -15 -115 -3 -7 11 13 16 125
28 119 13 150 13 150 3z m1118 -473 l2 -478 -110 -2 c-60 -1 -117 -2 -125 -2
-8 -1 -54 49 -102 110 -131 165 -257 313 -267 313 -5 1 -5 -38 -1 -86 15 -173
21 -308 16 -314 -3 -4 -58 -10 -121 -14 l-116 -7 -18 169 c-69 662 -74 721
-55 727 20 7 242 23 254 19 14 -6 81 -90 241 -303 l139 -185 3 75 c1 41 -1
158 -6 260 -5 102 -7 188 -5 192 2 3 63 6 136 5 l132 -2 3 -477z m1871 436 c7
-8 -51 0 -124 17 -27 6 -55 11 -62 12 -7 0 -10 4 -8 7 5 8 185 -26 194 -36z
m-919 16 c0 -5 -2 -10 -4 -10 -3 0 -8 5 -11 10 -3 6 -1 10 4 10 6 0 11 -4 11
-10z m2268 -1 c17 -6 33 -17 36 -25 3 -8 15 -14 26 -14 11 0 20 -4 20 -9 0 -4
12 -6 26 -3 14 2 29 1 33 -4 3 -5 67 -34 141 -63 74 -30 142 -60 151 -68 8 -7
23 -13 32 -13 9 0 42 -11 73 -25 31 -14 61 -25 66 -25 5 0 20 -11 34 -25 14
-14 33 -25 42 -26 9 0 31 -9 47 -20 17 -11 38 -22 48 -25 9 -4 17 -10 17 -15
0 -5 8 -9 18 -9 23 0 76 -55 68 -69 -4 -7 1 -11 12 -11 11 0 30 -9 43 -20 20
-17 20 -19 4 -12 -11 6 -47 15 -80 21 -156 31 -187 40 -202 61 -8 12 -20 19
-27 17 -6 -2 -24 4 -41 14 -16 10 -41 23 -55 29 -14 5 -33 15 -43 20 -9 6 -39
17 -65 26 -62 20 -152 65 -152 76 0 4 -9 8 -20 8 -12 0 -38 9 -58 19 -21 11
-63 27 -95 36 -31 9 -59 21 -62 26 -4 5 -17 9 -30 9 -13 0 -27 5 -30 10 -3 6
-15 10 -26 10 -11 0 -18 4 -15 9 3 4 -6 7 -20 5 l-26 -2 28 29 c21 22 30 26
37 17 5 -8 6 -5 2 9 -5 20 0 43 9 43 2 0 17 -5 34 -11z m-7561 -5 c-3 -3 -12
-4 -19 -1 -8 3 -5 6 6 6 11 1 17 -2 13 -5z m2927 -9 c-7 -17 -20 -20 -29 -5
-3 5 -19 8 -36 6 -16 -2 -32 0 -35 5 -3 5 20 9 50 9 45 0 54 -3 50 -15z m2572
-6 c54 -6 105 -15 114 -20 10 -7 -4 -8 -45 -4 -33 4 -87 10 -119 14 -37 4 -61
11 -64 20 -3 8 0 11 5 8 6 -4 55 -12 109 -18z m464 17 c0 -3 -4 -8 -10 -11 -5
-3 -10 -1 -10 4 0 6 5 11 10 11 6 0 10 -2 10 -4z m50 0 c0 -11 -19 -15 -25 -6
-3 5 1 10 9 10 9 0 16 -2 16 -4z m-5497 -13 c-7 -2 -19 -2 -25 0 -7 3 -2 5 12
5 14 0 19 -2 13 -5z m177 -8 c1 12 30 -25 30 -38 0 -5 -7 -3 -16 4 -15 12 -16
11 -9 -10 6 -21 5 -23 -14 -18 -12 3 -19 1 -15 -4 3 -5 -1 -9 -8 -9 -7 0 -38
-13 -68 -29 -30 -15 -68 -31 -83 -35 -15 -4 -25 -11 -22 -16 5 -9 -37 -32 -82
-45 -13 -3 -23 -11 -23 -16 0 -5 -6 -9 -13 -9 -11 0 -73 -29 -147 -69 -55 -30
-91 -43 -104 -38 -9 4 -15 2 -13 -4 1 -5 -17 -18 -40 -29 -30 -13 -43 -15 -43
-7 0 8 -3 8 -9 -2 -6 -9 -11 -10 -15 -2 -9 14 -83 14 -88 0 -2 -6 -15 -9 -28
-7 l-25 5 25 11 c23 10 24 11 4 11 -25 1 -38 -21 -21 -38 13 -13 -12 -15 -50
-5 -22 6 -21 7 10 28 47 32 109 60 130 58 9 0 15 3 12 8 -3 5 6 17 21 26 22
15 27 15 35 3 7 -11 9 -11 9 4 0 9 11 23 25 29 14 6 25 15 25 20 0 4 7 8 15 8
19 0 147 71 175 98 11 10 45 32 75 47 31 15 58 32 61 36 7 12 24 11 24 -1 0
-6 -12 -16 -28 -23 -15 -7 -53 -31 -84 -54 -31 -24 -60 -43 -63 -43 -4 0 -18
-9 -32 -20 -14 -11 -34 -20 -45 -20 -10 0 -21 -7 -24 -15 -3 -8 -21 -20 -40
-27 -37 -13 -52 -37 -32 -49 7 -5 15 -4 16 1 2 6 14 10 27 10 13 0 27 5 30 10
3 6 14 10 24 10 10 0 25 7 32 16 7 9 43 29 79 46 36 16 73 33 82 39 10 5 24 9
32 9 17 0 167 67 176 78 9 13 69 52 79 52 5 0 12 -6 15 -12 3 -7 3 1 0 17 -4
23 -3 27 5 15 6 -8 11 -10 11 -5z m1677 9 c-3 -3 -12 -4 -19 -1 -8 3 -5 6 6 6
11 1 17 -2 13 -5z m2963 -4 c0 -5 -2 -10 -4 -10 -3 0 -8 5 -11 10 -3 6 -1 10
4 10 6 0 11 -4 11 -10z m788 -5 c-2 -1 -20 -5 -41 -8 -31 -5 -36 -3 -28 7 6 7
23 11 41 8 17 -2 30 -5 28 -7z m-5648 -15 c0 -5 -4 -10 -10 -10 -5 0 -10 5
-10 10 0 6 5 10 10 10 6 0 10 -4 10 -10z m2098 -25 c-1 -22 -6 -31 -12 -25 -6
6 -16 5 -28 -1 -10 -5 -22 -8 -26 -5 -5 3 -26 -1 -47 -8 -40 -14 -69 -11 -59
5 3 5 1 9 -5 9 -5 0 -14 -8 -20 -17 -9 -17 -10 -17 -16 0 -8 19 -42 22 -89 7
-127 -40 -148 -43 -158 -29 -8 11 -9 10 -4 -3 8 -27 -4 -48 -27 -48 -19 0
-111 -19 -184 -39 -26 -7 -37 -5 -54 10 -29 25 -37 24 -14 -1 10 -11 15 -23
11 -28 -4 -4 -14 2 -22 13 -8 11 -21 28 -30 39 -15 17 -14 18 25 14 23 -2 41
0 41 5 0 4 5 5 11 2 6 -4 8 -13 5 -21 -3 -8 0 -11 10 -7 8 3 13 12 10 20 -7
17 33 34 63 26 12 -3 21 -1 21 4 0 9 78 22 150 26 14 1 28 5 31 9 7 11 214 48
266 48 23 0 53 4 67 10 18 6 26 6 26 -1 0 -6 4 -8 9 -4 5 3 13 0 17 -7 5 -8
10 -4 15 10 12 33 20 27 17 -13z m270 19 c38 -6 39 -8 17 -174 -19 -145 -29
-239 -60 -575 -14 -148 -27 -275 -30 -281 -3 -10 -192 -51 -199 -43 -2 2 -48
101 -101 219 -54 118 -105 226 -114 240 -15 23 -16 21 -22 -75 -4 -55 -7 -175
-8 -266 -1 -120 -4 -169 -13 -177 -7 -5 -44 -17 -83 -26 -38 -9 -76 -19 -83
-21 -7 -3 -29 22 -50 56 -73 119 -319 486 -402 599 -205 281 -193 263 -173
278 34 25 202 122 212 122 10 0 79 -97 239 -338 52 -78 96 -141 98 -140 1 2
15 96 29 208 39 300 26 268 120 296 44 13 87 23 96 24 18 0 51 -52 169 -270
85 -156 84 -157 95 37 7 143 23 302 31 314 5 9 160 4 232 -7z m464 -224 c15
-129 39 -338 53 -465 14 -126 27 -235 30 -242 2 -6 -2 -16 -8 -22 -12 -9 -225
-37 -232 -29 -2 1 -12 68 -24 148 -11 80 -39 269 -62 420 -22 151 -44 300 -49
330 -4 30 -5 59 -1 63 9 9 202 36 241 33 24 -1 24 -1 52 -236z m2898 220 c20
-6 21 -8 5 -8 -11 0 -29 3 -40 8 -25 11 1 11 35 0z m-445 -15 c-16 -7 -34 -10
-39 -7 -12 7 21 21 49 20 15 0 13 -3 -10 -13z m-2840 -4 c3 -5 1 -12 -5 -16
-5 -3 -10 1 -10 9 0 18 6 21 15 7z m3180 -20 c67 -24 131 -67 181 -120 44 -48
71 -98 59 -109 -6 -5 -61 -24 -123 -42 l-114 -32 -26 24 c-37 33 -75 48 -126
48 -50 0 -76 -21 -57 -44 7 -8 44 -34 84 -58 105 -63 208 -169 237 -244 27
-72 24 -174 -7 -244 -60 -134 -229 -221 -388 -199 -147 20 -291 144 -311 267
l-6 40 64 11 c35 6 91 14 123 17 56 6 61 4 70 -17 15 -34 54 -58 105 -65 37
-5 50 -2 73 16 63 50 20 135 -104 207 -104 60 -158 109 -194 174 -24 45 -29
65 -29 124 0 63 3 75 36 126 41 64 76 92 157 126 48 20 69 23 146 20 59 -3
111 -11 150 -26z m178 22 c-7 -2 -19 -2 -25 0 -7 3 -2 5 12 5 14 0 19 -2 13
-5z m-4236 -9 c-3 -3 -12 -4 -19 -1 -8 3 -5 6 6 6 11 1 17 -2 13 -5z m-40 -10
c-3 -3 -12 -4 -19 -1 -8 3 -5 6 6 6 11 1 17 -2 13 -5z m4427 -13 c4 -5 -3 -7
-14 -4 -23 6 -26 13 -6 13 8 0 17 -4 20 -9z m146 -38 c46 -12 58 -19 41 -21
-24 -4 -161 35 -161 45 0 6 35 0 120 -24z m883 11 c-5 -13 -2 -15 14 -10 11 4
39 -2 64 -14 24 -11 54 -20 67 -20 13 0 21 -4 18 -9 -3 -4 14 -14 37 -21 23
-8 59 -22 79 -32 21 -10 48 -18 60 -19 22 0 22 -1 3 -9 -11 -4 -24 -4 -29 1
-6 5 -17 9 -25 9 -12 0 -11 -3 2 -18 21 -23 21 -32 2 -32 -8 0 -15 3 -15 8 0
7 -72 42 -88 42 -4 0 -27 10 -52 22 -25 11 -52 24 -60 28 -9 4 -35 11 -59 15
-23 4 -45 13 -48 21 -3 8 -9 14 -15 14 -5 0 -6 -5 -2 -11 4 -7 2 -10 -5 -8
-23 8 -16 24 19 41 42 22 41 22 33 2z m-5678 -4 c-3 -5 -12 -10 -18 -10 -7 0
-6 4 3 10 19 12 23 12 15 0z m-75 -20 c-20 -13 -43 -13 -35 0 3 6 16 10 28 10
18 0 19 -2 7 -10z m4635 -6 c11 -4 52 -10 90 -15 39 -5 97 -16 130 -24 86 -20
133 -27 195 -31 50 -3 53 -2 36 12 -11 7 -37 14 -57 14 -47 0 -61 18 -17 22
27 2 201 -45 218 -59 2 -2 -1 -12 -7 -22 -10 -16 -9 -20 5 -23 10 -3 26 -2 37
2 18 6 18 7 -3 12 -12 4 -22 12 -22 18 0 17 72 3 83 -16 4 -8 20 -14 35 -14
33 0 61 -8 172 -50 47 -18 97 -34 112 -37 15 -3 33 -11 39 -19 6 -8 18 -14 26
-14 8 0 12 -4 8 -9 -3 -6 11 -13 32 -17 21 -4 79 -22 128 -40 50 -18 113 -40
140 -50 68 -24 119 -47 127 -59 4 -5 10 -6 14 -2 4 3 24 -7 45 -23 21 -18 39
-26 41 -19 5 16 75 -27 81 -51 4 -16 2 -17 -19 -8 -13 6 -24 15 -24 20 0 4
-16 8 -35 8 -19 0 -35 5 -35 10 0 6 -6 10 -12 10 -7 0 -35 11 -63 25 -27 13
-59 25 -70 25 l-20 1 20 9 c16 7 13 9 -17 11 -21 1 -42 3 -48 4 -5 1 -13 3
-16 4 -4 0 -1 8 6 16 10 12 6 13 -24 8 -25 -4 -49 1 -81 16 -24 11 -51 21 -59
21 -8 0 -17 4 -20 8 -3 5 -33 17 -68 26 -35 10 -72 22 -83 26 -52 19 -124 39
-165 45 -25 4 -49 11 -55 15 -14 10 -110 40 -129 40 -9 0 -16 4 -16 9 0 4 -26
11 -57 15 -57 6 -109 26 -70 26 9 0 17 5 17 10 0 14 -26 13 -49 -2 -15 -9 -33
-7 -92 12 -82 26 -264 65 -381 81 -51 8 -79 16 -83 26 -4 12 0 14 17 9 13 -4
32 -9 43 -12z m-4713 -8 c7 4 8 2 4 -4 -8 -14 -36 -16 -36 -4 0 14 14 24 18
13 2 -6 9 -8 14 -5z m788 -2 c0 -8 -5 -12 -10 -9 -6 4 -8 11 -5 16 9 14 15 11
15 -7z m4286 -2 c-16 -2 -32 0 -37 5 -5 5 7 7 29 4 34 -5 35 -6 8 -9z m-2645
-68 c4 -38 7 -100 8 -139 l1 -70 -20 25 c-36 45 -140 198 -140 206 0 4 10 -1
21 -12 21 -19 22 -19 15 3 -5 17 -4 22 6 18 7 -3 29 6 48 20 19 14 39 24 45
22 5 -2 13 -35 16 -73z m-3256 -23 c13 -37 12 -37 -14 -37 -17 1 -28 8 -33 21
-6 19 -6 19 -7 -2 -1 -16 -9 -23 -33 -28 -18 -4 -42 -14 -53 -21 -11 -8 -32
-14 -47 -14 -16 0 -28 -4 -28 -9 0 -5 -10 -11 -22 -14 -33 -7 -89 -28 -119
-43 -14 -7 -29 -11 -32 -8 -7 7 -76 -16 -97 -32 -8 -6 -31 -18 -50 -27 -19 -8
-55 -24 -80 -35 -31 -14 -50 -17 -62 -11 -14 8 -18 6 -18 -8 0 -27 -69 -47
-90 -27 -20 20 -2 47 36 55 l29 7 -27 1 c-32 1 -40 31 -9 31 10 0 24 7 31 15
7 8 18 15 25 15 7 0 18 6 24 14 6 8 22 16 36 18 18 4 25 0 28 -16 3 -20 4 -20
14 4 14 33 49 64 63 55 6 -4 28 4 48 17 41 27 194 88 221 88 9 0 22 5 28 11 6
6 40 17 75 24 105 23 118 27 118 39 1 15 28 -36 45 -83z m781 77 c5 -8 0 -9
-14 -6 -12 4 -22 2 -22 -3 0 -5 -10 -9 -22 -9 -23 0 -23 1 2 14 32 18 47 19
56 4z m5794 8 c0 -3 -6 -11 -13 -18 -11 -11 -4 -13 42 -15 31 -1 57 -7 59 -13
2 -5 12 -10 23 -10 11 0 27 -4 37 -9 30 -16 104 -46 200 -81 85 -31 111 -52
80 -62 -8 -3 -4 -9 9 -17 19 -9 22 -9 17 2 -6 16 26 33 35 18 3 -5 23 -12 43
-16 21 -4 49 -18 63 -31 14 -13 30 -24 36 -24 5 0 9 -10 9 -22 0 -18 2 -20 10
-8 8 12 13 11 39 -8 17 -12 37 -22 45 -22 8 0 16 -4 18 -8 2 -5 31 -23 66 -42
56 -30 60 -34 45 -46 -16 -13 -15 -13 8 -5 20 7 32 6 48 -5 12 -9 34 -22 49
-30 19 -10 22 -14 9 -14 -10 0 -31 7 -46 15 -30 15 -74 9 -78 -11 -1 -6 15
-14 37 -18 47 -7 60 -23 28 -35 -23 -9 -68 2 -78 19 -3 5 -16 11 -28 13 -12 2
-28 9 -34 15 -9 9 -15 9 -27 -1 -8 -7 -12 -7 -8 -1 3 6 -5 17 -18 24 -14 7
-25 17 -25 22 0 4 -10 8 -22 8 -13 0 -38 9 -56 20 -18 11 -38 20 -45 20 -7 0
-32 9 -55 20 -22 11 -45 20 -50 20 -4 0 -33 12 -63 28 -30 15 -74 33 -99 41
-25 7 -73 26 -108 42 -34 16 -71 29 -82 29 -11 0 -28 4 -38 9 -46 25 -110 51
-125 51 -17 0 -49 15 -77 36 -8 7 -44 19 -80 27 -61 14 -62 15 -25 17 22 0 58
7 80 15 48 17 48 17 41 6 -7 -11 37 -23 58 -15 16 6 12 24 -5 24 -6 0 -7 -4
-4 -10 3 -5 -1 -10 -9 -10 -29 0 -16 29 22 49 41 22 42 23 42 17z m-5880 -30
c0 -9 -40 -13 -46 -5 -3 5 6 9 20 9 14 0 26 -2 26 -4z m3770 -6 c0 -5 -5 -10
-11 -10 -5 0 -7 5 -4 10 3 6 8 10 11 10 2 0 4 -4 4 -10z m-3680 -4 c0 -3 -25
-20 -56 -38 -45 -27 -54 -37 -51 -56 3 -17 -1 -24 -22 -28 -120 -28 -254 -70
-293 -90 -16 -9 -28 -13 -28 -9 0 3 -17 -3 -37 -13 -21 -11 -51 -22 -68 -26
-16 -4 -48 -16 -70 -26 -46 -21 -166 -72 -240 -102 -42 -17 -96 -41 -197 -90
-11 -5 -18 -4 -18 2 0 5 5 10 11 10 6 0 9 7 5 15 -3 9 0 15 9 15 15 0 24 3 82
34 17 9 40 16 51 16 11 0 25 7 32 15 7 8 24 15 37 15 14 0 37 8 51 19 15 10
44 24 64 30 21 7 40 17 43 22 4 5 14 9 23 9 10 0 34 8 54 18 20 11 58 25 85
32 26 8 54 20 61 27 7 7 24 13 37 13 30 0 41 16 23 37 -12 15 -10 16 20 10 26
-5 32 -3 32 11 0 13 15 21 58 31 31 7 69 19 84 27 15 8 38 14 52 14 14 0 28 5
31 10 4 6 10 8 15 5 4 -3 32 6 61 20 62 27 59 26 59 21z m3650 -10 c0 -3 -4
-8 -10 -11 -5 -3 -10 -1 -10 4 0 6 5 11 10 11 6 0 10 -2 10 -4z m-3925 -26 c4
-6 -6 -10 -22 -9 -25 0 -26 1 -8 9 11 5 21 9 22 9 1 1 5 -3 8 -9z m558 -33
c-7 -11 -23 2 -23 19 0 12 2 12 14 2 8 -7 12 -16 9 -21z m-613 9 c0 -9 -40
-13 -46 -5 -3 5 6 9 20 9 14 0 26 -2 26 -4z m6618 -5 c9 -6 39 -20 66 -33 27
-13 42 -24 34 -26 -9 -2 -37 9 -63 24 -41 23 -51 24 -71 13 -28 -15 -42 -6
-24 16 14 17 33 19 58 6z m-6698 -11 c0 -5 -15 -10 -32 -9 -31 1 -32 1 -8 9
35 11 40 11 40 0z m5597 -16 c-3 -3 -12 -4 -19 -1 -8 3 -5 6 6 6 11 1 17 -2
13 -5z m-5657 -14 c-8 -5 -23 -7 -34 -4 -14 5 -16 3 -11 -7 5 -8 5 -11 0 -7
-4 4 -16 3 -27 -3 -28 -15 -129 -40 -142 -35 -15 5 37 25 102 39 28 6 52 15
52 19 0 4 17 8 38 8 27 0 33 -3 22 -10z m5800 -20 c8 -5 11 -12 7 -17 -5 -4
-11 -3 -15 3 -4 6 -14 14 -22 17 -13 5 -13 5 0 6 8 0 22 -3 30 -9z m-6110 -5
c0 -8 -73 -36 -84 -32 -6 3 5 11 24 20 36 16 60 21 60 12z m5140 -16 c0 -6 -4
-7 -10 -4 -5 3 -10 11 -10 16 0 6 5 7 10 4 6 -3 10 -11 10 -16z m-4430 -14
c14 -19 14 -19 -2 -6 -10 7 -18 18 -18 24 0 6 1 8 3 6 1 -2 9 -13 17 -24z
m6430 15 c0 -5 8 -10 17 -10 9 0 14 -3 10 -6 -8 -8 -47 5 -47 17 0 5 5 9 10 9
6 0 10 -4 10 -10z m125 -10 c3 -6 -1 -7 -9 -4 -18 7 -21 14 -7 14 6 0 13 -4
16 -10z m-7185 -15 c0 -8 -7 -15 -15 -15 -26 0 -18 20 13 29 1 1 2 -6 2 -14z
m-204 -10 c-11 -8 -27 -15 -35 -15 -19 0 -101 -42 -101 -52 0 -15 37 -13 73 4
21 10 57 23 80 27 23 5 64 16 90 24 28 9 47 11 45 5 -2 -6 -24 -17 -48 -25
-25 -8 -54 -18 -65 -23 -11 -5 -35 -12 -53 -15 -18 -4 -45 -13 -60 -21 -15 -8
-34 -14 -42 -14 -8 0 -24 -7 -34 -15 -14 -11 -22 -12 -27 -4 -4 8 -11 4 -18
-10 -7 -11 -20 -21 -31 -21 -10 0 -22 -4 -25 -10 -3 -5 -19 -10 -35 -10 -16 0
-30 -7 -34 -16 -3 -8 -10 -12 -16 -9 -5 3 -20 -1 -32 -9 -12 -9 -34 -16 -49
-16 -14 0 -34 -9 -44 -20 -10 -11 -26 -20 -36 -20 -10 0 -21 -5 -25 -11 -3 -6
-17 -9 -29 -6 -17 3 -25 -2 -29 -17 -6 -21 -6 -21 -21 -1 -15 19 -16 19 -21
-3 -4 -12 -13 -22 -20 -22 -8 0 -14 -4 -14 -10 0 -5 -8 -10 -18 -10 -11 0 -27
-9 -37 -20 -10 -11 -21 -17 -25 -15 -4 3 -13 -2 -20 -10 -7 -8 -18 -15 -24
-15 -6 1 0 10 14 21 14 11 43 35 64 52 22 18 62 53 89 79 46 44 51 47 63 30
17 -21 18 -8 2 18 -15 23 -6 33 31 36 15 1 41 8 57 16 16 8 50 21 77 28 26 7
47 16 47 21 0 4 30 17 68 29 37 11 90 32 119 46 46 22 111 40 153 43 11 0 10
-3 -4 -14z m7348 -4 c4 -5 -3 -7 -14 -4 -23 6 -26 13 -6 13 8 0 17 -4 20 -9z
m155 -25 c19 -11 29 -22 23 -24 -7 -2 -24 6 -38 17 -15 12 -38 21 -51 21 -13
0 -22 4 -19 9 8 12 42 3 85 -23z m-7154 14 c-25 -11 -68 -13 -61 -2 2 4 22 9
43 9 30 2 34 0 18 -7z m7066 -20 c5 0 9 -4 9 -10 0 -14 -13 -12 -36 6 -17 14
-17 15 -1 10 10 -3 23 -6 28 -6z m-8117 -14 c-10 -8 -21 -12 -24 -10 -5 6 21
24 34 24 6 0 1 -6 -10 -14z m946 10 c0 -2 -7 -7 -16 -10 -8 -3 -12 -2 -9 4 6
10 25 14 25 6z m7255 -36 c22 -11 46 -20 55 -20 19 0 123 -50 117 -57 -6 -5
-87 20 -87 28 0 4 -20 12 -45 19 -25 7 -48 17 -51 21 -3 5 -14 9 -24 9 -10 0
-22 5 -25 10 -10 16 18 12 60 -10z m-8228 -22 c-3 -8 -6 -5 -6 6 -1 11 2 17 5
13 3 -3 4 -12 1 -19z m823 2 c-8 -5 -26 -9 -40 -9 -23 1 -23 2 5 9 43 11 52
11 35 0z m1288 -45 c-2 -25 -5 -45 -8 -45 -5 0 -50 66 -50 73 0 12 40 2 43
-11 3 -12 5 -10 6 6 0 12 3 22 6 22 3 0 4 -20 3 -45z m-1398 5 c0 -5 -8 -10
-17 -10 -15 0 -16 2 -3 10 19 12 20 12 20 0z m-45 -19 c-6 -5 -21 -12 -34 -16
-21 -6 -22 -5 -10 8 8 9 23 16 34 17 11 0 15 -3 10 -9z m492 3 c-3 -3 -12 -4
-19 -1 -8 3 -5 6 6 6 11 1 17 -2 13 -5z m-682 -74 c-3 -5 -14 -10 -23 -9 -14
0 -13 2 3 9 27 11 27 11 20 0z m-82 -37 c-7 -2 -19 -2 -25 0 -7 3 -2 5 12 5
14 0 19 -2 13 -5z m387 3 c0 -2 -7 -7 -16 -10 -8 -3 -12 -2 -9 4 6 10 25 14
25 6z m60 -10 c0 -3 -4 -8 -10 -11 -5 -3 -10 -1 -10 4 0 6 5 11 10 11 6 0 10
-2 10 -4z m-510 -16 c0 -5 -4 -10 -10 -10 -5 0 -10 5 -10 10 0 6 5 10 10 10 6
0 10 -4 10 -10z m-45 -20 c-3 -5 -10 -10 -16 -10 -5 0 -9 5 -9 10 0 6 7 10 16
10 8 0 12 -4 9 -10z m472 -6 c-3 -3 -12 -4 -19 -1 -8 3 -5 6 6 6 11 1 17 -2
13 -5z m-141 -19 c-8 -8 -21 -15 -28 -15 -8 1 -6 6 6 15 26 20 42 19 22 0z
m-376 -4 c0 -5 -13 -11 -30 -13 -29 -4 -42 6 -19 14 23 8 49 7 49 -1z m425
-19 c-16 -10 -46 -26 -65 -35 -19 -10 -44 -23 -55 -30 -134 -83 -145 -88 -145
-67 0 6 12 15 27 21 15 6 30 13 33 17 3 4 29 18 57 32 29 14 53 28 53 33 0 4
8 7 18 7 9 0 31 9 47 19 17 11 37 20 45 20 8 1 2 -7 -15 -17z m-95 -2 c0 -5
-7 -10 -16 -10 -8 0 -12 5 -9 10 3 6 10 10 16 10 5 0 9 -4 9 -10z m-430 -17
c-8 -4 -29 -14 -47 -24 -21 -12 -30 -14 -27 -5 5 13 49 34 74 34 13 0 13 0 0
-5z m380 -1 c0 -11 -56 -43 -63 -36 -3 3 -17 -5 -31 -17 -23 -20 -86 -53 -86
-45 0 11 115 86 118 78 2 -7 12 -3 25 8 22 21 37 26 37 12z m-475 -42 c3 -5
-1 -10 -10 -10 -9 0 -13 5 -10 10 3 6 8 10 10 10 2 0 7 -4 10 -10z m-46 -24
c-2 -2 -15 -7 -29 -10 l-25 -7 25 15 c21 12 42 14 29 2z"/>
<path d="M4633 6520 c-18 -11 -33 -24 -33 -30 0 -14 5 -13 42 10 42 25 71 25
125 -1 42 -20 124 -108 146 -156 6 -13 14 -23 19 -23 12 0 -46 107 -77 142
-67 77 -154 100 -222 58z"/>
<path d="M4673 6164 c-22 -34 -28 -120 -13 -183 33 -139 120 -134 128 7 5 81
-10 140 -43 176 -30 33 -50 33 -72 0z"/>
<path d="M3798 3343 c7 -3 16 -2 19 1 4 3 -2 6 -13 5 -11 0 -14 -3 -6 -6z"/>
<path d="M3761 3294 c0 -11 3 -14 6 -6 3 7 2 16 -1 19 -3 4 -6 -2 -5 -13z"/>
<path d="M4311 3304 c0 -11 3 -14 6 -6 3 7 2 16 -1 19 -3 4 -6 -2 -5 -13z"/>
<path d="M3176 2839 c-5 -15 -43 -274 -48 -324 -3 -29 -1 -30 32 -27 120 11
155 18 152 32 -5 28 -114 315 -123 324 -5 6 -10 4 -13 -5z m74 -222 c0 -5 -11
-2 -25 7 -23 15 -24 15 -18 -1 5 -12 2 -15 -10 -10 -8 3 -18 1 -21 -6 -2 -7
-5 1 -5 16 -1 16 3 26 8 22 5 -3 13 -1 16 5 5 8 11 7 21 -1 8 -6 14 -9 14 -6
0 12 -25 62 -34 68 -5 4 -5 12 -1 19 5 8 16 -8 31 -45 13 -32 24 -63 24 -68z
m-50 74 c0 -6 -4 -13 -10 -16 -5 -3 -10 1 -10 9 0 9 5 16 10 16 6 0 10 -4 10
-9z"/>
<path d="M5255 3191 c-3 -5 -1 -12 4 -15 5 -3 11 1 15 9 6 16 -9 21 -19 6z"/>
<path d="M5135 3100 c3 -5 8 -10 11 -10 2 0 4 5 4 10 0 6 -5 10 -11 10 -5 0
-7 -4 -4 -10z"/>
<path d="M3471 3154 c0 -11 3 -14 6 -6 3 7 2 16 -1 19 -3 4 -6 -2 -5 -13z"/>
<path d="M3507 3113 c-8 -8 -9 -46 -1 -66 5 -13 12 -13 57 -1 29 8 66 14 82
14 17 0 48 9 70 19 36 16 41 16 52 2 11 -14 12 -13 13 8 l0 23 -124 -5 c-69
-3 -130 -8 -137 -13 -9 -5 -10 -2 -6 9 7 18 5 21 -6 10z"/>
<path d="M5727 3150 c-3 -11 -1 -20 4 -20 5 0 9 9 9 20 0 11 -2 20 -4 20 -2 0
-6 -9 -9 -20z"/>
<path d="M5790 3150 c0 -5 5 -10 10 -10 6 0 10 5 10 10 0 6 -4 10 -10 10 -5 0
-10 -4 -10 -10z"/>
<path d="M6301 3090 c-12 -7 -9 -10 11 -15 27 -7 48 -1 48 13 0 11 -43 13 -59
2z"/>
<path d="M6376 3058 c3 -4 9 -8 15 -8 5 0 9 4 9 8 0 5 -7 9 -15 9 -8 0 -12 -4
-9 -9z"/>
<path d="M6538 3033 c7 -3 16 -2 19 1 4 3 -2 6 -13 5 -11 0 -14 -3 -6 -6z"/>
<path d="M4400 3090 c0 -5 5 -10 11 -10 5 0 7 5 4 10 -3 6 -8 10 -11 10 -2 0
-4 -4 -4 -10z"/>
<path d="M2460 2970 c-13 -8 -12 -10 3 -10 9 0 17 5 17 10 0 12 -1 12 -20 0z"/>
<path d="M2493 2943 c9 -2 23 -2 30 0 6 3 -1 5 -18 5 -16 0 -22 -2 -12 -5z"/>
<path d="M2400 2919 c0 -5 5 -7 10 -4 6 3 10 8 10 11 0 2 -4 4 -10 4 -5 0 -10
-5 -10 -11z"/>
<path d="M6992 2950 c0 -14 2 -19 5 -12 2 6 2 18 0 25 -3 6 -5 1 -5 -13z"/>
<path d="M7100 2920 c0 -5 5 -10 10 -10 6 0 10 5 10 10 0 6 -4 10 -10 10 -5 0
-10 -4 -10 -10z"/>
<path d="M7200 2900 c0 -5 9 -10 21 -10 11 0 17 5 14 10 -3 6 -13 10 -21 10
-8 0 -14 -4 -14 -10z"/>
<path d="M7365 2870 c3 -5 13 -10 21 -10 8 0 12 5 9 10 -3 6 -13 10 -21 10 -8
0 -12 -4 -9 -10z"/>
<path d="M7228 2863 c6 -2 18 -2 25 0 6 3 1 5 -13 5 -14 0 -19 -2 -12 -5z"/>
<path d="M5710 2879 c0 -16 5 -20 27 -17 40 4 42 33 3 36 -24 2 -30 -1 -30
-19z"/>
<path d="M2695 2890 c-3 -5 -1 -10 4 -10 6 0 11 5 11 10 0 6 -2 10 -4 10 -3 0
-8 -4 -11 -10z"/>
<path d="M6505 2790 c-3 -11 -2 -27 3 -36 8 -15 10 -14 16 2 4 10 3 20 -3 22
-5 2 -7 10 -4 18 3 8 3 14 0 14 -3 0 -8 -9 -12 -20z"/>
<path d="M5193 2744 c-9 -24 13 -41 36 -27 12 8 22 8 29 1 6 -6 12 -6 16 0 3
6 -8 18 -25 26 -40 20 -48 20 -56 0z"/>
<path d="M5172 2690 c0 -14 2 -19 5 -12 2 6 2 18 0 25 -3 6 -5 1 -5 -13z"/>
<path d="M7083 2703 c-15 -5 -17 -23 -4 -23 5 0 11 7 15 15 3 8 4 15 3 14 -1
0 -8 -3 -14 -6z"/>
<path d="M7012 2618 c-6 -6 -12 -18 -12 -26 0 -10 3 -10 16 2 8 9 14 21 12 26
-2 7 -8 6 -16 -2z"/>
<path d="M3790 2390 c0 -5 5 -10 10 -10 6 0 10 5 10 10 0 6 -4 10 -10 10 -5 0
-10 -4 -10 -10z"/>
<path d="M7548 2503 c6 -2 18 -2 25 0 6 3 1 5 -13 5 -14 0 -19 -2 -12 -5z"/>
<path d="M408 2283 c7 -3 16 -2 19 1 4 3 -2 6 -13 5 -11 0 -14 -3 -6 -6z"/>
<path d="M370 2256 c0 -2 7 -6 15 -10 8 -3 15 -1 15 4 0 6 -7 10 -15 10 -8 0
-15 -2 -15 -4z"/>
<path d="M310 2230 c0 -5 5 -10 11 -10 5 0 7 5 4 10 -3 6 -8 10 -11 10 -2 0
-4 -4 -4 -10z"/>
<path d="M142 2158 c-14 -14 -16 -28 -3 -28 9 0 24 30 18 36 -2 2 -9 -2 -15
-8z"/>
<path d="M4201 2434 c0 -11 3 -14 6 -6 3 7 2 16 -1 19 -3 4 -6 -2 -5 -13z"/>
<path d="M5151 2374 c0 -11 3 -14 6 -6 3 7 2 16 -1 19 -3 4 -6 -2 -5 -13z"/>
<path d="M8218 2383 c7 -3 16 -2 19 1 4 3 -2 6 -13 5 -11 0 -14 -3 -6 -6z"/>
<path d="M8298 2358 c12 -6 22 -15 22 -20 0 -11 11 -10 30 2 13 9 13 11 0 20
-8 5 -28 9 -45 9 -29 0 -29 -1 -7 -11z"/>
<path d="M6161 2274 c0 -11 3 -14 6 -6 3 7 2 16 -1 19 -3 4 -6 -2 -5 -13z"/>
<path d="M5676 2365 c-9 -26 -7 -32 5 -12 6 10 9 21 6 23 -2 3 -7 -2 -11 -11z"/>
<path d="M6911 2324 c0 -11 3 -14 6 -6 3 7 2 16 -1 19 -3 4 -6 -2 -5 -13z"/>
<path d="M7350 2302 c0 -12 19 -26 26 -19 2 2 -2 10 -11 17 -9 8 -15 8 -15 2z"/>
<path d="M4251 2274 c0 -11 3 -14 6 -6 3 7 2 16 -1 19 -3 4 -6 -2 -5 -13z"/>
<path d="M5665 2220 c-3 -5 -1 -10 4 -10 6 0 11 5 11 10 0 6 -2 10 -4 10 -3 0
-8 -4 -11 -10z"/>
<path d="M4744 2157 c3 -10 6 -28 6 -39 0 -12 2 -19 4 -17 2 2 4 6 3 9 0 3 5
16 12 29 10 18 10 22 1 16 -7 -4 -17 -1 -22 6 -8 11 -8 10 -4 -4z"/>
<path d="M5217 2163 c-4 -3 -7 -11 -7 -17 0 -6 5 -5 12 2 6 6 9 14 7 17 -3 3
-9 2 -12 -2z"/>
<path d="M4341 2133 c0 -12 -5 -24 -11 -28 -10 -6 -2 -35 10 -35 5 0 6 10 4
23 -2 12 -2 16 2 10 3 -7 10 -13 16 -13 7 0 7 4 0 13 -5 6 -12 21 -15 32 -4
19 -5 18 -6 -2z"/>
<path d="M4233 2105 c0 -22 2 -30 4 -17 2 12 2 30 0 40 -3 9 -5 -1 -4 -23z"/>
<path d="M5190 2125 c0 -5 5 -17 10 -25 5 -8 10 -10 10 -5 0 6 -5 17 -10 25
-5 8 -10 11 -10 5z"/>
<path d="M5221 2105 c0 -17 -6 -36 -13 -43 -9 -9 -9 -12 0 -12 14 0 26 41 19
67 -3 11 -5 6 -6 -12z"/>
<path d="M4200 2103 c0 -12 5 -25 10 -28 13 -8 13 15 0 35 -8 12 -10 11 -10
-7z"/>
<path d="M3796 2094 c-4 -9 -4 -19 -1 -22 2 -3 7 3 11 12 4 9 4 19 1 22 -2 3
-7 -3 -11 -12z"/>
<path d="M5175 2091 c-3 -5 -1 -12 5 -16 5 -3 10 1 10 9 0 18 -6 21 -15 7z"/>
<path d="M4880 2070 c0 -6 11 -8 28 -4 39 10 40 14 4 14 -18 0 -32 -5 -32 -10z"/>
<path d="M4258 2053 c12 -2 32 -2 45 0 12 2 2 4 -23 4 -25 0 -35 -2 -22 -4z"/>
<path d="M3568 2023 c7 -3 16 -2 19 1 4 3 -2 6 -13 5 -11 0 -14 -3 -6 -6z"/>
<path d="M3613 2019 c14 -8 22 -8 30 0 8 8 3 11 -18 11 -26 -1 -28 -2 -12 -11z"/>
<path d="M3671 2004 c0 -11 3 -14 6 -6 3 7 2 16 -1 19 -3 4 -6 -2 -5 -13z"/>
<path d="M3517 2004 c-10 -11 3 -24 24 -24 23 0 25 15 3 24 -19 7 -19 7 -27 0z"/>
<path d="M3585 2000 c3 -5 16 -10 28 -9 21 0 21 1 2 9 -28 12 -37 12 -30 0z"/>
<path d="M3410 1970 c0 -5 7 -10 15 -10 8 0 15 5 15 10 0 6 -7 10 -15 10 -8 0
-15 -4 -15 -10z"/>
<path d="M3280 2090 c0 -5 5 -10 10 -10 6 0 10 5 10 10 0 6 -4 10 -10 10 -5 0
-10 -4 -10 -10z"/>
<path d="M3240 2070 c8 -5 22 -10 30 -10 13 0 13 1 0 10 -8 5 -22 10 -30 10
-13 0 -13 -1 0 -10z"/>
<path d="M3111 2044 c0 -11 3 -14 6 -6 3 7 2 16 -1 19 -3 4 -6 -2 -5 -13z"/>
<path d="M5615 2080 c-3 -5 -1 -10 4 -10 6 0 11 5 11 10 0 6 -2 10 -4 10 -3 0
-8 -4 -11 -10z"/>
<path d="M6281 2014 c0 -11 3 -14 6 -6 3 7 2 16 -1 19 -3 4 -6 -2 -5 -13z"/>
<path d="M5686 2005 c4 -8 10 -15 15 -15 4 0 6 7 3 15 -4 8 -10 15 -15 15 -4
0 -6 -7 -3 -15z"/>
<path d="M5770 2010 c20 -13 43 -13 35 0 -3 6 -16 10 -28 10 -18 0 -19 -2 -7
-10z"/>
<path d="M6251 2004 c0 -11 3 -14 6 -6 3 7 2 16 -1 19 -3 4 -6 -2 -5 -13z"/>
<path d="M5830 2000 c-9 -6 -10 -10 -3 -10 6 0 15 5 18 10 8 12 4 12 -15 0z"/>
<path d="M5916 1988 c7 -11 32 -10 39 2 3 6 -4 9 -19 8 -13 -1 -22 -6 -20 -10z"/>
<path d="M6048 1963 c7 -3 16 -2 19 1 4 3 -2 6 -13 5 -11 0 -14 -3 -6 -6z"/>
<path d="M6295 1960 c-4 -6 0 -10 9 -10 8 0 17 -6 19 -12 4 -8 6 -7 6 3 1 19
-25 33 -34 19z"/>
<path d="M8190 2020 c0 -5 5 -10 10 -10 6 0 10 5 10 10 0 6 -4 10 -10 10 -5 0
-10 -4 -10 -10z"/>
<path d="M8230 1995 c0 -8 7 -15 15 -15 9 0 12 6 9 15 -4 8 -10 15 -15 15 -5
0 -9 -7 -9 -15z"/>
<path d="M8408 1933 c7 -3 16 -2 19 1 4 3 -2 6 -13 5 -11 0 -14 -3 -6 -6z"/>
<path d="M8470 1910 c-8 -5 -10 -10 -5 -10 6 0 17 5 25 10 8 5 11 10 5 10 -5
0 -17 -5 -25 -10z"/>
<path d="M8950 1685 c0 -8 5 -15 10 -15 6 0 10 7 10 15 0 8 -4 15 -10 15 -5 0
-10 -7 -10 -15z"/>
<path d="M530 1810 c-12 -8 -11 -10 8 -10 12 0 22 5 22 10 0 13 -11 13 -30 0z"/>
<path d="M420 1750 c-13 -8 -13 -10 2 -10 9 0 20 5 23 10 8 13 -5 13 -25 0z"/>
<path d="M7360 2020 c0 -5 5 -10 11 -10 5 0 7 5 4 10 -3 6 -8 10 -11 10 -2 0
-4 -4 -4 -10z"/>
<path d="M1728 2003 c7 -3 16 -2 19 1 4 3 -2 6 -13 5 -11 0 -14 -3 -6 -6z"/>
<path d="M1555 1940 c-3 -5 -1 -10 4 -10 6 0 11 5 11 10 0 6 -2 10 -4 10 -3 0
-8 -4 -11 -10z"/>
<path d="M8067 1925 c-6 -15 10 -32 20 -21 4 3 1 6 -5 6 -6 0 -9 7 -6 15 4 8
4 15 1 15 -3 0 -7 -7 -10 -15z"/>
<path d="M8760 1586 c0 -7 40 -14 44 -7 3 4 -6 8 -20 9 -13 1 -24 0 -24 -2z"/>
<path d="M8830 1550 c0 -5 5 -10 10 -10 6 0 10 5 10 10 0 6 -4 10 -10 10 -5 0
-10 -4 -10 -10z"/>
<path d="M6772 1920 c0 -14 2 -19 5 -12 2 6 2 18 0 25 -3 6 -5 1 -5 -13z"/>
<path d="M6790 1930 c0 -5 5 -10 11 -10 5 0 7 5 4 10 -3 6 -8 10 -11 10 -2 0
-4 -4 -4 -10z"/>
<path d="M6965 1853 c0 -12 3 -23 8 -23 4 0 7 4 7 9 0 5 2 16 5 24 3 7 0 14
-7 14 -7 0 -13 -11 -13 -24z"/>
<path d="M7000 1845 c0 -8 4 -15 10 -15 5 0 7 7 4 15 -4 8 -8 15 -10 15 -2 0
-4 -7 -4 -15z"/>
<path d="M7070 1771 c0 -6 4 -13 10 -16 6 -3 7 1 4 9 -7 18 -14 21 -14 7z"/>
<path d="M1895 1800 c3 -5 12 -10 20 -10 8 0 17 5 20 10 4 6 -5 10 -20 10 -15
0 -24 -4 -20 -10z"/>
<path d="M1775 1750 c3 -5 12 -7 20 -3 21 7 19 13 -6 13 -11 0 -18 -4 -14 -10z"/>
<path d="M1648 1723 c6 -2 18 -2 25 0 6 3 1 5 -13 5 -14 0 -19 -2 -12 -5z"/>
<path d="M8115 1720 c3 -5 15 -10 26 -10 10 0 19 5 19 10 0 6 -12 10 -26 10
-14 0 -23 -4 -19 -10z"/>
<path d="M8240 1700 c0 -5 19 -10 43 -9 36 1 38 2 17 9 -36 12 -60 12 -60 0z"/>
<path d="M8475 1600 c-3 -5 1 -10 10 -10 9 0 13 5 10 10 -3 6 -8 10 -10 10 -2
0 -7 -4 -10 -10z"/>
<path d="M8828 1433 c7 -3 16 -2 19 1 4 3 -2 6 -13 5 -11 0 -14 -3 -6 -6z"/>
<path d="M8855 1420 c-3 -5 1 -10 9 -10 9 0 16 5 16 10 0 6 -4 10 -9 10 -6 0
-13 -4 -16 -10z"/>
<path d="M865 1640 c3 -5 8 -10 11 -10 2 0 4 5 4 10 0 6 -5 10 -11 10 -5 0 -7
-4 -4 -10z"/>
<path d="M400 1480 c0 -5 5 -10 10 -10 6 0 10 5 10 10 0 6 -4 10 -10 10 -5 0
-10 -4 -10 -10z"/>
<path d="M2960 1760 c0 -5 5 -10 10 -10 6 0 10 5 10 10 0 6 -4 10 -10 10 -5 0
-10 -4 -10 -10z"/>
<path d="M7900 1680 c0 -5 5 -10 11 -10 5 0 7 5 4 10 -3 6 -8 10 -11 10 -2 0
-4 -4 -4 -10z"/>
<path d="M8148 1593 c7 -3 16 -2 19 1 4 3 -2 6 -13 5 -11 0 -14 -3 -6 -6z"/>
<path d="M7318 1603 c6 -2 18 -2 25 0 6 3 1 5 -13 5 -14 0 -19 -2 -12 -5z"/>
<path d="M7580 1510 c0 -5 4 -10 9 -10 6 0 13 5 16 10 3 6 -1 10 -9 10 -9 0
-16 -4 -16 -10z"/>
<path d="M7726 1471 c-3 -5 3 -11 14 -14 13 -3 20 0 20 9 0 15 -26 19 -34 5z"/>
<path d="M7818 1433 c7 -3 16 -2 19 1 4 3 -2 6 -13 5 -11 0 -14 -3 -6 -6z"/>
<path d="M1185 1610 c-3 -5 -1 -10 4 -10 6 0 11 5 11 10 0 6 -2 10 -4 10 -3 0
-8 -4 -11 -10z"/>
<path d="M1231 1574 c0 -11 3 -14 6 -6 3 7 2 16 -1 19 -3 4 -6 -2 -5 -13z"/>
<path d="M858 1513 c7 -3 16 -2 19 1 4 3 -2 6 -13 5 -11 0 -14 -3 -6 -6z"/>
<path d="M951 1494 c0 -11 3 -14 6 -6 3 7 2 16 -1 19 -3 4 -6 -2 -5 -13z"/>
<path d="M7745 1560 c3 -5 8 -10 11 -10 2 0 4 5 4 10 0 6 -5 10 -11 10 -5 0
-7 -4 -4 -10z"/>
<path d="M8160 1460 c0 -5 5 -10 10 -10 6 0 10 5 10 10 0 6 -4 10 -10 10 -5 0
-10 -4 -10 -10z"/>
<path d="M8705 1150 c3 -5 11 -10 16 -10 6 0 7 5 4 10 -3 6 -11 10 -16 10 -6
0 -7 -4 -4 -10z"/>
<path d="M888 1353 c7 -3 16 -2 19 1 4 3 -2 6 -13 5 -11 0 -14 -3 -6 -6z"/>
<path d="M610 1260 c0 -5 5 -10 10 -10 6 0 10 5 10 10 0 6 -4 10 -10 10 -5 0
-10 -4 -10 -10z"/>
<path d="M640 1260 c0 -5 7 -7 15 -4 8 4 15 8 15 10 0 2 -7 4 -15 4 -8 0 -15
-4 -15 -10z"/>
<path d="M7986 2737 c3 -10 9 -15 12 -12 3 3 0 11 -7 18 -10 9 -11 8 -5 -6z"/>
<path d="M8430 2550 c-12 -8 -12 -10 5 -10 11 0 27 5 35 10 12 8 12 10 -5 10
-11 0 -27 -5 -35 -10z"/>
<path d="M8460 2530 c0 -5 5 -10 10 -10 6 0 10 5 10 10 0 6 -4 10 -10 10 -5 0
-10 -4 -10 -10z"/>
<path d="M8668 2463 c7 -3 16 -2 19 1 4 3 -2 6 -13 5 -11 0 -14 -3 -6 -6z"/>
<path d="M8710 2455 c-14 -16 -10 -18 14 -9 9 3 16 10 16 15 0 14 -16 11 -30
-6z"/>
<path d="M8780 2440 c0 -5 5 -10 11 -10 5 0 7 5 4 10 -3 6 -8 10 -11 10 -2 0
-4 -4 -4 -10z"/>
<path d="M7735 2370 c-3 -5 1 -10 10 -10 9 0 13 5 10 10 -3 6 -8 10 -10 10 -2
0 -7 -4 -10 -10z"/>
<path d="M9012 2319 c2 -5 18 -19 36 -30 28 -18 33 -19 38 -5 3 8 -1 22 -9 31
-17 17 -71 21 -65 4z"/>
<path d="M7968 2283 c6 -2 18 -2 25 0 6 3 1 5 -13 5 -14 0 -19 -2 -12 -5z"/>
<path d="M8360 2170 c0 -5 10 -15 23 -21 22 -12 22 -12 3 10 -21 23 -26 26
-26 11z"/>
<path d="M8476 2115 c4 -8 11 -15 16 -15 6 0 5 6 -2 15 -7 8 -14 15 -16 15 -2
0 -1 -7 2 -15z"/>
<path d="M8308 2073 c6 -2 18 -2 25 0 6 3 1 5 -13 5 -14 0 -19 -2 -12 -5z"/>
<path d="M8620 2040 c0 -5 5 -10 10 -10 6 0 10 5 10 10 0 6 -4 10 -10 10 -5 0
-10 -4 -10 -10z"/>
<path d="M8745 2020 c3 -5 13 -10 21 -10 8 0 12 5 9 10 -3 6 -13 10 -21 10 -8
0 -12 -4 -9 -10z"/>
<path d="M8568 1983 c7 -3 16 -2 19 1 4 3 -2 6 -13 5 -11 0 -14 -3 -6 -6z"/>
<path d="M8990 1926 c0 -2 7 -7 16 -10 8 -3 12 -2 9 4 -6 10 -25 14 -25 6z"/>
<path d="M9105 1861 c-3 -5 -1 -12 4 -15 5 -3 11 1 15 9 6 16 -9 21 -19 6z"/>
<path d="M3378 1503 c7 -3 16 -2 19 1 4 3 -2 6 -13 5 -11 0 -14 -3 -6 -6z"/>
</g>
</svg>
